<?xml version="1.0" encoding="us-ascii" standalone="no"?><svg xmlns="http://www.w3.org/2000/svg" xmlns:xlink="http://www.w3.org/1999/xlink" contentStyleType="text/css" height="1174px" preserveAspectRatio="none" style="width:3038px;height:1174px;background:#FFFFFF;" version="1.1" viewBox="0 0 3038 1174" width="3038px" zoomAndPan="magnify"><defs/><g><!--cluster Decisions--><g id="cluster_Decisions"><path d="M486.4745,373 L564.4745,373 A3.75,3.75 0 0 1 566.9745,375.5 L573.9745,395.2969 L1412.4765,395.2969 A2.5,2.5 0 0 1 1414.9765,397.7969 L1414.9765,825.5 A2.5,2.5 0 0 1 1412.4765,828 L486.4745,828 A2.5,2.5 0 0 1 483.9745,825.5 L483.9745,375.5 A2.5,2.5 0 0 1 486.4745,373 " fill="none" style="stroke:#000000;stroke-width:1.5;"/><line style="stroke:#000000;stroke-width:1.5;" x1="483.9745" x2="573.9745" y1="395.2969" y2="395.2969"/><text fill="#000000" font-family="sans-serif" font-size="14" font-weight="bold" lengthAdjust="spacing" textLength="77" x="487.9745" y="387.9951">Decisions</text></g><!--cluster POI--><g id="cluster_POI"><path d="M732.4745,861 L760.4745,861 A3.75,3.75 0 0 1 762.9745,863.5 L769.9745,883.2969 L3029.4765,883.2969 A2.5,2.5 0 0 1 3031.9765,885.7969 L3031.9765,1164.5 A2.5,2.5 0 0 1 3029.4765,1167 L732.4745,1167 A2.5,2.5 0 0 1 729.9745,1164.5 L729.9745,863.5 A2.5,2.5 0 0 1 732.4745,861 " fill="none" style="stroke:#000000;stroke-width:1.5;"/><line style="stroke:#000000;stroke-width:1.5;" x1="729.9745" x2="769.9745" y1="883.2969" y2="883.2969"/><text fill="#000000" font-family="sans-serif" font-size="14" font-weight="bold" lengthAdjust="spacing" textLength="27" x="733.9745" y="875.9951">POI</text></g><!--cluster Power--><g id="cluster_Power"><path d="M1867.4765,389 L1917.4765,389 A3.75,3.75 0 0 1 1919.9765,391.5 L1926.9765,411.2969 L2787.4765,411.2969 A2.5,2.5 0 0 1 2789.9765,413.7969 L2789.9765,518.5 A2.5,2.5 0 0 1 2787.4765,521 L1867.4765,521 A2.5,2.5 0 0 1 1864.9765,518.5 L1864.9765,391.5 A2.5,2.5 0 0 1 1867.4765,389 " fill="none" style="stroke:#000000;stroke-width:1.5;"/><line style="stroke:#000000;stroke-width:1.5;" x1="1864.9765" x2="1926.9765" y1="411.2969" y2="411.2969"/><text fill="#000000" font-family="sans-serif" font-size="14" font-weight="bold" lengthAdjust="spacing" textLength="49" x="1868.9765" y="403.9951">Power</text></g><!--class Decision--><g id="elem_Decision"><rect codeLine="9" fill="#F1F1F1" height="113.1875" id="Decision" rx="2.5" ry="2.5" style="stroke:#181818;stroke-width:0.5;" width="688" x="631.9745" y="408"/><ellipse cx="941.2245" cy="424" fill="#ADD1B2" rx="11" ry="11" style="stroke:#181818;stroke-width:1.0;"/><path d="M943.5683,419.6719 C942.6308,419.2344 942.037,419.0938 941.162,419.0938 C938.537,419.0938 936.537,421.1719 936.537,423.8906 L936.537,425.0156 C936.537,427.5938 938.6464,429.4844 941.537,429.4844 C942.7558,429.4844 943.912,429.1875 944.662,428.6406 C945.2401,428.2344 945.5683,427.7813 945.5683,427.3906 C945.5683,426.9375 945.1776,426.5469 944.7089,426.5469 C944.4901,426.5469 944.287,426.625 944.0995,426.8125 C943.6464,427.2969 943.6464,427.2969 943.4589,427.3906 C943.037,427.6563 942.3495,427.7813 941.5839,427.7813 C939.537,427.7813 938.2401,426.6875 938.2401,424.9844 L938.2401,423.8906 C938.2401,422.1094 939.4901,420.7969 941.2245,420.7969 C941.8026,420.7969 942.412,420.9531 942.8808,421.2031 C943.3651,421.4844 943.537,421.7031 943.6308,422.1094 C943.6933,422.5156 943.7245,422.6406 943.8651,422.7656 C944.0058,422.9063 944.2401,423.0156 944.4589,423.0156 C944.7245,423.0156 944.9901,422.875 945.162,422.6563 C945.2714,422.5 945.3026,422.3125 945.3026,421.8906 L945.3026,420.4688 C945.3026,420.0313 945.287,419.9063 945.1933,419.75 C945.037,419.4844 944.7558,419.3438 944.4589,419.3438 C944.162,419.3438 943.9589,419.4375 943.7401,419.75 L943.5683,419.6719 Z " fill="#000000"/><text fill="#000000" font-family="sans-serif" font-size="14" lengthAdjust="spacing" textLength="61" x="961.7245" y="428.8467">Decision</text><line style="stroke:#181818;stroke-width:0.5;" x1="632.9745" x2="1318.9745" y1="440" y2="440"/><line style="stroke:#181818;stroke-width:0.5;" x1="632.9745" x2="1318.9745" y1="448" y2="448"/><ellipse cx="642.9745" cy="461.6484" fill="#84BE84" rx="3" ry="3" style="stroke:#038048;stroke-width:1.0;"/><text fill="#000000" font-family="sans-serif" font-size="14" lengthAdjust="spacing" text-decoration="underline" textLength="166" x="651.9745" y="464.9951">getInstance(): Decision</text><ellipse cx="642.9745" cy="477.9453" fill="#84BE84" rx="3" ry="3" style="stroke:#038048;stroke-width:1.0;"/><text fill="#000000" font-family="sans-serif" font-size="14" lengthAdjust="spacing" textLength="157" x="651.9745" y="481.292">stopDecision(): String</text><ellipse cx="642.9745" cy="494.2422" fill="#84BE84" rx="3" ry="3" style="stroke:#038048;stroke-width:1.0;"/><text fill="#000000" font-family="sans-serif" font-size="14" lengthAdjust="spacing" textLength="662" x="651.9745" y="497.5889">decisionControl(rightDir: String, leftDir: String, oppositeDir: String, initialDir: String): String</text><ellipse cx="642.9745" cy="510.5391" fill="#84BE84" rx="3" ry="3" style="stroke:#038048;stroke-width:1.0;"/><text fill="#000000" font-family="sans-serif" font-size="14" lengthAdjust="spacing" textLength="327" x="651.9745" y="513.8857">useEchoResults(resultData: JSONObject): void</text></g><!--class DecisionState--><g id="elem_DecisionState"><rect codeLine="16" fill="#F1F1F1" height="64.2969" id="DecisionState" rx="2.5" ry="2.5" style="stroke:#181818;stroke-width:0.5;" width="688" x="631.9745" y="622.5"/><ellipse cx="922.7245" cy="638.5" fill="#B4A7E5" rx="11" ry="11" style="stroke:#181818;stroke-width:1.0;"/><path d="M923.6776,635.2813 L925.3964,635.2813 C925.787,635.2813 925.9745,635.25 926.0995,635.1719 C926.3651,635.0156 926.5058,634.7344 926.5058,634.4375 C926.5058,634.1719 926.3964,633.9063 926.162,633.7344 C925.9901,633.625 925.8495,633.5938 925.3964,633.5938 L920.2558,633.5938 C919.8183,633.5938 919.6933,633.6094 919.537,633.7031 C919.287,633.8594 919.1308,634.1563 919.1308,634.4375 C919.1308,634.7188 919.2714,634.9688 919.4901,635.1406 C919.6464,635.25 919.8339,635.2813 920.2558,635.2813 L921.9745,635.2813 L921.9745,641.7969 L920.2558,641.7969 C919.8183,641.7969 919.6933,641.8125 919.537,641.9219 C919.287,642.0781 919.1308,642.3594 919.1308,642.6563 C919.1308,642.9063 919.2714,643.1719 919.4901,643.3281 C919.6464,643.4531 919.8495,643.5 920.2558,643.5 L925.3964,643.5 C926.1464,643.5 926.5058,643.2188 926.5058,642.6563 C926.5058,642.375 926.3964,642.125 926.162,641.9531 C925.9901,641.8281 925.8495,641.7969 925.3964,641.7969 L923.6776,641.7969 L923.6776,635.2813 Z " fill="#000000"/><text fill="#000000" font-family="sans-serif" font-size="14" font-style="italic" lengthAdjust="spacing" textLength="98" x="943.2245" y="643.3467">DecisionState</text><line style="stroke:#181818;stroke-width:0.5;" x1="632.9745" x2="1318.9745" y1="654.5" y2="654.5"/><line style="stroke:#181818;stroke-width:0.5;" x1="632.9745" x2="1318.9745" y1="662.5" y2="662.5"/><ellipse cx="642.9745" cy="676.1484" fill="#84BE84" rx="3" ry="3" style="stroke:#038048;stroke-width:1.0;"/><text fill="#000000" font-family="sans-serif" font-size="14" lengthAdjust="spacing" textLength="662" x="651.9745" y="679.4951">^makeDecision(rightDir: String, leftDir: String, oppositeDir: String, initialDir: String): String</text></g><!--class FindLand--><g id="elem_FindLand"><rect codeLine="20" fill="#F1F1F1" height="48" id="FindLand" rx="2.5" ry="2.5" style="stroke:#181818;stroke-width:0.5;" width="96" x="499.9745" y="764"/><ellipse cx="514.9745" cy="780" fill="#ADD1B2" rx="11" ry="11" style="stroke:#181818;stroke-width:1.0;"/><path d="M517.3183,775.6719 C516.3808,775.2344 515.787,775.0938 514.912,775.0938 C512.287,775.0938 510.287,777.1719 510.287,779.8906 L510.287,781.0156 C510.287,783.5938 512.3964,785.4844 515.287,785.4844 C516.5058,785.4844 517.662,785.1875 518.412,784.6406 C518.9901,784.2344 519.3183,783.7813 519.3183,783.3906 C519.3183,782.9375 518.9276,782.5469 518.4589,782.5469 C518.2401,782.5469 518.037,782.625 517.8495,782.8125 C517.3964,783.2969 517.3964,783.2969 517.2089,783.3906 C516.787,783.6563 516.0995,783.7813 515.3339,783.7813 C513.287,783.7813 511.9901,782.6875 511.9901,780.9844 L511.9901,779.8906 C511.9901,778.1094 513.2401,776.7969 514.9745,776.7969 C515.5526,776.7969 516.162,776.9531 516.6308,777.2031 C517.1151,777.4844 517.287,777.7031 517.3808,778.1094 C517.4433,778.5156 517.4745,778.6406 517.6151,778.7656 C517.7558,778.9063 517.9901,779.0156 518.2089,779.0156 C518.4745,779.0156 518.7401,778.875 518.912,778.6563 C519.0214,778.5 519.0526,778.3125 519.0526,777.8906 L519.0526,776.4688 C519.0526,776.0313 519.037,775.9063 518.9433,775.75 C518.787,775.4844 518.5058,775.3438 518.2089,775.3438 C517.912,775.3438 517.7089,775.4375 517.4901,775.75 L517.3183,775.6719 Z " fill="#000000"/><text fill="#000000" font-family="sans-serif" font-size="14" lengthAdjust="spacing" textLength="64" x="528.9745" y="784.8467">FindLand</text><line style="stroke:#181818;stroke-width:0.5;" x1="500.9745" x2="594.9745" y1="796" y2="796"/><line style="stroke:#181818;stroke-width:0.5;" x1="500.9745" x2="594.9745" y1="804" y2="804"/></g><!--class FlyingToLand--><g id="elem_FlyingToLand"><rect codeLine="22" fill="#F1F1F1" height="48" id="FlyingToLand" rx="2.5" ry="2.5" style="stroke:#181818;stroke-width:0.5;" width="126" x="630.9745" y="764"/><ellipse cx="645.9745" cy="780" fill="#ADD1B2" rx="11" ry="11" style="stroke:#181818;stroke-width:1.0;"/><path d="M648.3183,775.6719 C647.3808,775.2344 646.787,775.0938 645.912,775.0938 C643.287,775.0938 641.287,777.1719 641.287,779.8906 L641.287,781.0156 C641.287,783.5938 643.3964,785.4844 646.287,785.4844 C647.5058,785.4844 648.662,785.1875 649.412,784.6406 C649.9901,784.2344 650.3183,783.7813 650.3183,783.3906 C650.3183,782.9375 649.9276,782.5469 649.4589,782.5469 C649.2401,782.5469 649.037,782.625 648.8495,782.8125 C648.3964,783.2969 648.3964,783.2969 648.2089,783.3906 C647.787,783.6563 647.0995,783.7813 646.3339,783.7813 C644.287,783.7813 642.9901,782.6875 642.9901,780.9844 L642.9901,779.8906 C642.9901,778.1094 644.2401,776.7969 645.9745,776.7969 C646.5526,776.7969 647.162,776.9531 647.6308,777.2031 C648.1151,777.4844 648.287,777.7031 648.3808,778.1094 C648.4433,778.5156 648.4745,778.6406 648.6151,778.7656 C648.7558,778.9063 648.9901,779.0156 649.2089,779.0156 C649.4745,779.0156 649.7401,778.875 649.912,778.6563 C650.0214,778.5 650.0526,778.3125 650.0526,777.8906 L650.0526,776.4688 C650.0526,776.0313 650.037,775.9063 649.9433,775.75 C649.787,775.4844 649.5058,775.3438 649.2089,775.3438 C648.912,775.3438 648.7089,775.4375 648.4901,775.75 L648.3183,775.6719 Z " fill="#000000"/><text fill="#000000" font-family="sans-serif" font-size="14" lengthAdjust="spacing" textLength="94" x="659.9745" y="784.8467">FlyingToLand</text><line style="stroke:#181818;stroke-width:0.5;" x1="631.9745" x2="755.9745" y1="796" y2="796"/><line style="stroke:#181818;stroke-width:0.5;" x1="631.9745" x2="755.9745" y1="804" y2="804"/></g><!--class ScanLeft--><g id="elem_ScanLeft"><rect codeLine="24" fill="#F1F1F1" height="48" id="ScanLeft" rx="2.5" ry="2.5" style="stroke:#181818;stroke-width:0.5;" width="96" x="791.9745" y="764"/><ellipse cx="806.9745" cy="780" fill="#ADD1B2" rx="11" ry="11" style="stroke:#181818;stroke-width:1.0;"/><path d="M809.3183,775.6719 C808.3808,775.2344 807.787,775.0938 806.912,775.0938 C804.287,775.0938 802.287,777.1719 802.287,779.8906 L802.287,781.0156 C802.287,783.5938 804.3964,785.4844 807.287,785.4844 C808.5058,785.4844 809.662,785.1875 810.412,784.6406 C810.9901,784.2344 811.3183,783.7813 811.3183,783.3906 C811.3183,782.9375 810.9276,782.5469 810.4589,782.5469 C810.2401,782.5469 810.037,782.625 809.8495,782.8125 C809.3964,783.2969 809.3964,783.2969 809.2089,783.3906 C808.787,783.6563 808.0995,783.7813 807.3339,783.7813 C805.287,783.7813 803.9901,782.6875 803.9901,780.9844 L803.9901,779.8906 C803.9901,778.1094 805.2401,776.7969 806.9745,776.7969 C807.5526,776.7969 808.162,776.9531 808.6308,777.2031 C809.1151,777.4844 809.287,777.7031 809.3808,778.1094 C809.4433,778.5156 809.4745,778.6406 809.6151,778.7656 C809.7558,778.9063 809.9901,779.0156 810.2089,779.0156 C810.4745,779.0156 810.7401,778.875 810.912,778.6563 C811.0214,778.5 811.0526,778.3125 811.0526,777.8906 L811.0526,776.4688 C811.0526,776.0313 811.037,775.9063 810.9433,775.75 C810.787,775.4844 810.5058,775.3438 810.2089,775.3438 C809.912,775.3438 809.7089,775.4375 809.4901,775.75 L809.3183,775.6719 Z " fill="#000000"/><text fill="#000000" font-family="sans-serif" font-size="14" lengthAdjust="spacing" textLength="64" x="820.9745" y="784.8467">ScanLeft</text><line style="stroke:#181818;stroke-width:0.5;" x1="792.9745" x2="886.9745" y1="796" y2="796"/><line style="stroke:#181818;stroke-width:0.5;" x1="792.9745" x2="886.9745" y1="804" y2="804"/></g><!--class ScanRight--><g id="elem_ScanRight"><rect codeLine="26" fill="#F1F1F1" height="48" id="ScanRight" rx="2.5" ry="2.5" style="stroke:#181818;stroke-width:0.5;" width="105" x="923.4745" y="764"/><ellipse cx="938.4745" cy="780" fill="#ADD1B2" rx="11" ry="11" style="stroke:#181818;stroke-width:1.0;"/><path d="M940.8183,775.6719 C939.8808,775.2344 939.287,775.0938 938.412,775.0938 C935.787,775.0938 933.787,777.1719 933.787,779.8906 L933.787,781.0156 C933.787,783.5938 935.8964,785.4844 938.787,785.4844 C940.0058,785.4844 941.162,785.1875 941.912,784.6406 C942.4901,784.2344 942.8183,783.7813 942.8183,783.3906 C942.8183,782.9375 942.4276,782.5469 941.9589,782.5469 C941.7401,782.5469 941.537,782.625 941.3495,782.8125 C940.8964,783.2969 940.8964,783.2969 940.7089,783.3906 C940.287,783.6563 939.5995,783.7813 938.8339,783.7813 C936.787,783.7813 935.4901,782.6875 935.4901,780.9844 L935.4901,779.8906 C935.4901,778.1094 936.7401,776.7969 938.4745,776.7969 C939.0526,776.7969 939.662,776.9531 940.1308,777.2031 C940.6151,777.4844 940.787,777.7031 940.8808,778.1094 C940.9433,778.5156 940.9745,778.6406 941.1151,778.7656 C941.2558,778.9063 941.4901,779.0156 941.7089,779.0156 C941.9745,779.0156 942.2401,778.875 942.412,778.6563 C942.5214,778.5 942.5526,778.3125 942.5526,777.8906 L942.5526,776.4688 C942.5526,776.0313 942.537,775.9063 942.4433,775.75 C942.287,775.4844 942.0058,775.3438 941.7089,775.3438 C941.412,775.3438 941.2089,775.4375 940.9901,775.75 L940.8183,775.6719 Z " fill="#000000"/><text fill="#000000" font-family="sans-serif" font-size="14" lengthAdjust="spacing" textLength="73" x="952.4745" y="784.8467">ScanRight</text><line style="stroke:#181818;stroke-width:0.5;" x1="924.4745" x2="1027.4745" y1="796" y2="796"/><line style="stroke:#181818;stroke-width:0.5;" x1="924.4745" x2="1027.4745" y1="804" y2="804"/></g><!--class Stop--><g id="elem_Stop"><rect codeLine="28" fill="#F1F1F1" height="48" id="Stop" rx="2.5" ry="2.5" style="stroke:#181818;stroke-width:0.5;" width="67" x="1063.4765" y="764"/><ellipse cx="1078.4765" cy="780" fill="#ADD1B2" rx="11" ry="11" style="stroke:#181818;stroke-width:1.0;"/><path d="M1080.8203,775.6719 C1079.8828,775.2344 1079.289,775.0938 1078.414,775.0938 C1075.789,775.0938 1073.789,777.1719 1073.789,779.8906 L1073.789,781.0156 C1073.789,783.5938 1075.8984,785.4844 1078.789,785.4844 C1080.0078,785.4844 1081.164,785.1875 1081.914,784.6406 C1082.4921,784.2344 1082.8203,783.7813 1082.8203,783.3906 C1082.8203,782.9375 1082.4296,782.5469 1081.9609,782.5469 C1081.7421,782.5469 1081.539,782.625 1081.3515,782.8125 C1080.8984,783.2969 1080.8984,783.2969 1080.7109,783.3906 C1080.289,783.6563 1079.6015,783.7813 1078.8359,783.7813 C1076.789,783.7813 1075.4921,782.6875 1075.4921,780.9844 L1075.4921,779.8906 C1075.4921,778.1094 1076.7421,776.7969 1078.4765,776.7969 C1079.0546,776.7969 1079.664,776.9531 1080.1328,777.2031 C1080.6171,777.4844 1080.789,777.7031 1080.8828,778.1094 C1080.9453,778.5156 1080.9765,778.6406 1081.1171,778.7656 C1081.2578,778.9063 1081.4921,779.0156 1081.7109,779.0156 C1081.9765,779.0156 1082.2421,778.875 1082.414,778.6563 C1082.5234,778.5 1082.5546,778.3125 1082.5546,777.8906 L1082.5546,776.4688 C1082.5546,776.0313 1082.539,775.9063 1082.4453,775.75 C1082.289,775.4844 1082.0078,775.3438 1081.7109,775.3438 C1081.414,775.3438 1081.2109,775.4375 1080.9921,775.75 L1080.8203,775.6719 Z " fill="#000000"/><text fill="#000000" font-family="sans-serif" font-size="14" lengthAdjust="spacing" textLength="35" x="1092.4765" y="784.8467">Stop</text><line style="stroke:#181818;stroke-width:0.5;" x1="1064.4765" x2="1129.4765" y1="796" y2="796"/><line style="stroke:#181818;stroke-width:0.5;" x1="1064.4765" x2="1129.4765" y1="804" y2="804"/></g><!--class TurnLeft--><g id="elem_TurnLeft"><rect codeLine="30" fill="#F1F1F1" height="48" id="TurnLeft" rx="2.5" ry="2.5" style="stroke:#181818;stroke-width:0.5;" width="94" x="1165.9765" y="764"/><ellipse cx="1180.9765" cy="780" fill="#ADD1B2" rx="11" ry="11" style="stroke:#181818;stroke-width:1.0;"/><path d="M1183.3203,775.6719 C1182.3828,775.2344 1181.789,775.0938 1180.914,775.0938 C1178.289,775.0938 1176.289,777.1719 1176.289,779.8906 L1176.289,781.0156 C1176.289,783.5938 1178.3984,785.4844 1181.289,785.4844 C1182.5078,785.4844 1183.664,785.1875 1184.414,784.6406 C1184.9921,784.2344 1185.3203,783.7813 1185.3203,783.3906 C1185.3203,782.9375 1184.9296,782.5469 1184.4609,782.5469 C1184.2421,782.5469 1184.039,782.625 1183.8515,782.8125 C1183.3984,783.2969 1183.3984,783.2969 1183.2109,783.3906 C1182.789,783.6563 1182.1015,783.7813 1181.3359,783.7813 C1179.289,783.7813 1177.9921,782.6875 1177.9921,780.9844 L1177.9921,779.8906 C1177.9921,778.1094 1179.2421,776.7969 1180.9765,776.7969 C1181.5546,776.7969 1182.164,776.9531 1182.6328,777.2031 C1183.1171,777.4844 1183.289,777.7031 1183.3828,778.1094 C1183.4453,778.5156 1183.4765,778.6406 1183.6171,778.7656 C1183.7578,778.9063 1183.9921,779.0156 1184.2109,779.0156 C1184.4765,779.0156 1184.7421,778.875 1184.914,778.6563 C1185.0234,778.5 1185.0546,778.3125 1185.0546,777.8906 L1185.0546,776.4688 C1185.0546,776.0313 1185.039,775.9063 1184.9453,775.75 C1184.789,775.4844 1184.5078,775.3438 1184.2109,775.3438 C1183.914,775.3438 1183.7109,775.4375 1183.4921,775.75 L1183.3203,775.6719 Z " fill="#000000"/><text fill="#000000" font-family="sans-serif" font-size="14" lengthAdjust="spacing" textLength="62" x="1194.9765" y="784.8467">TurnLeft</text><line style="stroke:#181818;stroke-width:0.5;" x1="1166.9765" x2="1258.9765" y1="796" y2="796"/><line style="stroke:#181818;stroke-width:0.5;" x1="1166.9765" x2="1258.9765" y1="804" y2="804"/></g><!--class TurnRight--><g id="elem_TurnRight"><rect codeLine="32" fill="#F1F1F1" height="48" id="TurnRight" rx="2.5" ry="2.5" style="stroke:#181818;stroke-width:0.5;" width="103" x="1295.4765" y="764"/><ellipse cx="1310.4765" cy="780" fill="#ADD1B2" rx="11" ry="11" style="stroke:#181818;stroke-width:1.0;"/><path d="M1312.8203,775.6719 C1311.8828,775.2344 1311.289,775.0938 1310.414,775.0938 C1307.789,775.0938 1305.789,777.1719 1305.789,779.8906 L1305.789,781.0156 C1305.789,783.5938 1307.8984,785.4844 1310.789,785.4844 C1312.0078,785.4844 1313.164,785.1875 1313.914,784.6406 C1314.4921,784.2344 1314.8203,783.7813 1314.8203,783.3906 C1314.8203,782.9375 1314.4296,782.5469 1313.9609,782.5469 C1313.7421,782.5469 1313.539,782.625 1313.3515,782.8125 C1312.8984,783.2969 1312.8984,783.2969 1312.7109,783.3906 C1312.289,783.6563 1311.6015,783.7813 1310.8359,783.7813 C1308.789,783.7813 1307.4921,782.6875 1307.4921,780.9844 L1307.4921,779.8906 C1307.4921,778.1094 1308.7421,776.7969 1310.4765,776.7969 C1311.0546,776.7969 1311.664,776.9531 1312.1328,777.2031 C1312.6171,777.4844 1312.789,777.7031 1312.8828,778.1094 C1312.9453,778.5156 1312.9765,778.6406 1313.1171,778.7656 C1313.2578,778.9063 1313.4921,779.0156 1313.7109,779.0156 C1313.9765,779.0156 1314.2421,778.875 1314.414,778.6563 C1314.5234,778.5 1314.5546,778.3125 1314.5546,777.8906 L1314.5546,776.4688 C1314.5546,776.0313 1314.539,775.9063 1314.4453,775.75 C1314.289,775.4844 1314.0078,775.3438 1313.7109,775.3438 C1313.414,775.3438 1313.2109,775.4375 1312.9921,775.75 L1312.8203,775.6719 Z " fill="#000000"/><text fill="#000000" font-family="sans-serif" font-size="14" lengthAdjust="spacing" textLength="71" x="1324.4765" y="784.8467">TurnRight</text><line style="stroke:#181818;stroke-width:0.5;" x1="1296.4765" x2="1397.4765" y1="796" y2="796"/><line style="stroke:#181818;stroke-width:0.5;" x1="1296.4765" x2="1397.4765" y1="804" y2="804"/></g><!--class Creeks--><g id="elem_Creeks"><rect codeLine="52" fill="#F1F1F1" height="80.5938" id="Creeks" rx="2.5" ry="2.5" style="stroke:#181818;stroke-width:0.5;" width="253" x="746.4745" y="912"/><ellipse cx="843.7245" cy="928" fill="#ADD1B2" rx="11" ry="11" style="stroke:#181818;stroke-width:1.0;"/><path d="M846.0683,923.6719 C845.1308,923.2344 844.537,923.0938 843.662,923.0938 C841.037,923.0938 839.037,925.1719 839.037,927.8906 L839.037,929.0156 C839.037,931.5938 841.1464,933.4844 844.037,933.4844 C845.2558,933.4844 846.412,933.1875 847.162,932.6406 C847.7401,932.2344 848.0683,931.7813 848.0683,931.3906 C848.0683,930.9375 847.6776,930.5469 847.2089,930.5469 C846.9901,930.5469 846.787,930.625 846.5995,930.8125 C846.1464,931.2969 846.1464,931.2969 845.9589,931.3906 C845.537,931.6563 844.8495,931.7813 844.0839,931.7813 C842.037,931.7813 840.7401,930.6875 840.7401,928.9844 L840.7401,927.8906 C840.7401,926.1094 841.9901,924.7969 843.7245,924.7969 C844.3026,924.7969 844.912,924.9531 845.3808,925.2031 C845.8651,925.4844 846.037,925.7031 846.1308,926.1094 C846.1933,926.5156 846.2245,926.6406 846.3651,926.7656 C846.5058,926.9063 846.7401,927.0156 846.9589,927.0156 C847.2245,927.0156 847.4901,926.875 847.662,926.6563 C847.7714,926.5 847.8026,926.3125 847.8026,925.8906 L847.8026,924.4688 C847.8026,924.0313 847.787,923.9063 847.6933,923.75 C847.537,923.4844 847.2558,923.3438 846.9589,923.3438 C846.662,923.3438 846.4589,923.4375 846.2401,923.75 L846.0683,923.6719 Z " fill="#000000"/><text fill="#000000" font-family="sans-serif" font-size="14" lengthAdjust="spacing" textLength="50" x="864.2245" y="932.8467">Creeks</text><line style="stroke:#181818;stroke-width:0.5;" x1="747.4745" x2="998.4745" y1="944" y2="944"/><line style="stroke:#181818;stroke-width:0.5;" x1="747.4745" x2="998.4745" y1="952" y2="952"/><ellipse cx="757.4745" cy="965.6484" fill="#84BE84" rx="3" ry="3" style="stroke:#038048;stroke-width:1.0;"/><text fill="#000000" font-family="sans-serif" font-size="14" lengthAdjust="spacing" textLength="227" x="766.4745" y="968.9951">addCreek(creekID: String): void</text><ellipse cx="757.4745" cy="981.9453" fill="#84BE84" rx="3" ry="3" style="stroke:#038048;stroke-width:1.0;"/><text fill="#000000" font-family="sans-serif" font-size="14" lengthAdjust="spacing" textLength="186" x="766.4745" y="985.292">getCreeks(): List&lt;String&gt;</text></g><!--class Site--><g id="elem_Site"><rect codeLine="57" fill="#F1F1F1" height="80.5938" id="Site" rx="2.5" ry="2.5" style="stroke:#181818;stroke-width:0.5;" width="207" x="1034.4765" y="912"/><ellipse cx="1119.2265" cy="928" fill="#ADD1B2" rx="11" ry="11" style="stroke:#181818;stroke-width:1.0;"/><path d="M1121.5703,923.6719 C1120.6328,923.2344 1120.039,923.0938 1119.164,923.0938 C1116.539,923.0938 1114.539,925.1719 1114.539,927.8906 L1114.539,929.0156 C1114.539,931.5938 1116.6484,933.4844 1119.539,933.4844 C1120.7578,933.4844 1121.914,933.1875 1122.664,932.6406 C1123.2421,932.2344 1123.5703,931.7813 1123.5703,931.3906 C1123.5703,930.9375 1123.1796,930.5469 1122.7109,930.5469 C1122.4921,930.5469 1122.289,930.625 1122.1015,930.8125 C1121.6484,931.2969 1121.6484,931.2969 1121.4609,931.3906 C1121.039,931.6563 1120.3515,931.7813 1119.5859,931.7813 C1117.539,931.7813 1116.2421,930.6875 1116.2421,928.9844 L1116.2421,927.8906 C1116.2421,926.1094 1117.4921,924.7969 1119.2265,924.7969 C1119.8046,924.7969 1120.414,924.9531 1120.8828,925.2031 C1121.3671,925.4844 1121.539,925.7031 1121.6328,926.1094 C1121.6953,926.5156 1121.7265,926.6406 1121.8671,926.7656 C1122.0078,926.9063 1122.2421,927.0156 1122.4609,927.0156 C1122.7265,927.0156 1122.9921,926.875 1123.164,926.6563 C1123.2734,926.5 1123.3046,926.3125 1123.3046,925.8906 L1123.3046,924.4688 C1123.3046,924.0313 1123.289,923.9063 1123.1953,923.75 C1123.039,923.4844 1122.7578,923.3438 1122.4609,923.3438 C1122.164,923.3438 1121.9609,923.4375 1121.7421,923.75 L1121.5703,923.6719 Z " fill="#000000"/><text fill="#000000" font-family="sans-serif" font-size="14" lengthAdjust="spacing" textLength="29" x="1139.7265" y="932.8467">Site</text><line style="stroke:#181818;stroke-width:0.5;" x1="1035.4765" x2="1240.4765" y1="944" y2="944"/><line style="stroke:#181818;stroke-width:0.5;" x1="1035.4765" x2="1240.4765" y1="952" y2="952"/><ellipse cx="1045.4765" cy="965.6484" fill="#84BE84" rx="3" ry="3" style="stroke:#038048;stroke-width:1.0;"/><text fill="#000000" font-family="sans-serif" font-size="14" lengthAdjust="spacing" textLength="181" x="1054.4765" y="968.9951">setSite(site: String): void</text><ellipse cx="1045.4765" cy="981.9453" fill="#84BE84" rx="3" ry="3" style="stroke:#038048;stroke-width:1.0;"/><text fill="#000000" font-family="sans-serif" font-size="14" lengthAdjust="spacing" textLength="117" x="1054.4765" y="985.292">getSite(): String</text></g><!--class ShortestPath--><g id="elem_ShortestPath"><rect codeLine="61" fill="#F1F1F1" height="64.2969" id="ShortestPath" rx="2.5" ry="2.5" style="stroke:#181818;stroke-width:0.5;" width="945" x="2070.4765" y="920.5"/><ellipse cx="2490.7265" cy="936.5" fill="#ADD1B2" rx="11" ry="11" style="stroke:#181818;stroke-width:1.0;"/><path d="M2493.0702,932.1719 C2492.1327,931.7344 2491.539,931.5938 2490.664,931.5938 C2488.039,931.5938 2486.039,933.6719 2486.039,936.3906 L2486.039,937.5156 C2486.039,940.0938 2488.1484,941.9844 2491.039,941.9844 C2492.2577,941.9844 2493.414,941.6875 2494.164,941.1406 C2494.7421,940.7344 2495.0702,940.2813 2495.0702,939.8906 C2495.0702,939.4375 2494.6796,939.0469 2494.2109,939.0469 C2493.9921,939.0469 2493.789,939.125 2493.6015,939.3125 C2493.1484,939.7969 2493.1484,939.7969 2492.9609,939.8906 C2492.539,940.1563 2491.8515,940.2813 2491.0859,940.2813 C2489.039,940.2813 2487.7421,939.1875 2487.7421,937.4844 L2487.7421,936.3906 C2487.7421,934.6094 2488.9921,933.2969 2490.7265,933.2969 C2491.3046,933.2969 2491.914,933.4531 2492.3827,933.7031 C2492.8671,933.9844 2493.039,934.2031 2493.1327,934.6094 C2493.1952,935.0156 2493.2265,935.1406 2493.3671,935.2656 C2493.5077,935.4063 2493.7421,935.5156 2493.9609,935.5156 C2494.2265,935.5156 2494.4921,935.375 2494.664,935.1563 C2494.7734,935 2494.8046,934.8125 2494.8046,934.3906 L2494.8046,932.9688 C2494.8046,932.5313 2494.789,932.4063 2494.6952,932.25 C2494.539,931.9844 2494.2577,931.8438 2493.9609,931.8438 C2493.664,931.8438 2493.4609,931.9375 2493.2421,932.25 L2493.0702,932.1719 Z " fill="#000000"/><text fill="#000000" font-family="sans-serif" font-size="14" lengthAdjust="spacing" textLength="96" x="2511.2265" y="941.3467">ShortestPath</text><line style="stroke:#181818;stroke-width:0.5;" x1="2071.4765" x2="3014.4765" y1="952.5" y2="952.5"/><line style="stroke:#181818;stroke-width:0.5;" x1="2071.4765" x2="3014.4765" y1="960.5" y2="960.5"/><ellipse cx="2081.4765" cy="974.1484" fill="#84BE84" rx="3" ry="3" style="stroke:#038048;stroke-width:1.0;"/><text fill="#000000" font-family="sans-serif" font-size="14" lengthAdjust="spacing" textLength="919" x="2090.4765" y="977.4951">findClosestCreek(creeksList : List&lt;String&gt;, creekX : List&lt;Integer&gt;, creekY : List&lt;Integer&gt;, siteposx : int, siteposy : int) : String</text></g><!--class SiteResults--><g id="elem_SiteResults"><rect codeLine="65" fill="#F1F1F1" height="80.5938" id="SiteResults" rx="2.5" ry="2.5" style="stroke:#181818;stroke-width:0.5;" width="351" x="1276.4765" y="912"/><ellipse cx="1407.2265" cy="928" fill="#ADD1B2" rx="11" ry="11" style="stroke:#181818;stroke-width:1.0;"/><path d="M1409.5703,923.6719 C1408.6328,923.2344 1408.039,923.0938 1407.164,923.0938 C1404.539,923.0938 1402.539,925.1719 1402.539,927.8906 L1402.539,929.0156 C1402.539,931.5938 1404.6484,933.4844 1407.539,933.4844 C1408.7578,933.4844 1409.914,933.1875 1410.664,932.6406 C1411.2421,932.2344 1411.5703,931.7813 1411.5703,931.3906 C1411.5703,930.9375 1411.1796,930.5469 1410.7109,930.5469 C1410.4921,930.5469 1410.289,930.625 1410.1015,930.8125 C1409.6484,931.2969 1409.6484,931.2969 1409.4609,931.3906 C1409.039,931.6563 1408.3515,931.7813 1407.5859,931.7813 C1405.539,931.7813 1404.2421,930.6875 1404.2421,928.9844 L1404.2421,927.8906 C1404.2421,926.1094 1405.4921,924.7969 1407.2265,924.7969 C1407.8046,924.7969 1408.414,924.9531 1408.8828,925.2031 C1409.3671,925.4844 1409.539,925.7031 1409.6328,926.1094 C1409.6953,926.5156 1409.7265,926.6406 1409.8671,926.7656 C1410.0078,926.9063 1410.2421,927.0156 1410.4609,927.0156 C1410.7265,927.0156 1410.9921,926.875 1411.164,926.6563 C1411.2734,926.5 1411.3046,926.3125 1411.3046,925.8906 L1411.3046,924.4688 C1411.3046,924.0313 1411.289,923.9063 1411.1953,923.75 C1411.039,923.4844 1410.7578,923.3438 1410.4609,923.3438 C1410.164,923.3438 1409.9609,923.4375 1409.7421,923.75 L1409.5703,923.6719 Z " fill="#000000"/><text fill="#000000" font-family="sans-serif" font-size="14" lengthAdjust="spacing" textLength="81" x="1427.7265" y="932.8467">SiteResults</text><line style="stroke:#181818;stroke-width:0.5;" x1="1277.4765" x2="1626.4765" y1="944" y2="944"/><line style="stroke:#181818;stroke-width:0.5;" x1="1277.4765" x2="1626.4765" y1="952" y2="952"/><ellipse cx="1287.4765" cy="965.6484" fill="#84BE84" rx="3" ry="3" style="stroke:#038048;stroke-width:1.0;"/><text fill="#000000" font-family="sans-serif" font-size="14" lengthAdjust="spacing" textLength="91" x="1296.4765" y="968.9951">SiteResults()</text><ellipse cx="1287.4765" cy="981.9453" fill="#84BE84" rx="3" ry="3" style="stroke:#038048;stroke-width:1.0;"/><text fill="#000000" font-family="sans-serif" font-size="14" lengthAdjust="spacing" textLength="325" x="1296.4765" y="985.292">useScanSite(resultData : JSONObject) : String</text></g><!--class CreekResults--><g id="elem_CreekResults"><rect codeLine="71" fill="#F1F1F1" height="113.1875" id="CreekResults" rx="2.5" ry="2.5" style="stroke:#181818;stroke-width:0.5;" width="372" x="1662.9765" y="896"/><ellipse cx="1797.2265" cy="912" fill="#ADD1B2" rx="11" ry="11" style="stroke:#181818;stroke-width:1.0;"/><path d="M1799.5703,907.6719 C1798.6328,907.2344 1798.039,907.0938 1797.164,907.0938 C1794.539,907.0938 1792.539,909.1719 1792.539,911.8906 L1792.539,913.0156 C1792.539,915.5938 1794.6484,917.4844 1797.539,917.4844 C1798.7578,917.4844 1799.914,917.1875 1800.664,916.6406 C1801.2421,916.2344 1801.5703,915.7813 1801.5703,915.3906 C1801.5703,914.9375 1801.1796,914.5469 1800.7109,914.5469 C1800.4921,914.5469 1800.289,914.625 1800.1015,914.8125 C1799.6484,915.2969 1799.6484,915.2969 1799.4609,915.3906 C1799.039,915.6563 1798.3515,915.7813 1797.5859,915.7813 C1795.539,915.7813 1794.2421,914.6875 1794.2421,912.9844 L1794.2421,911.8906 C1794.2421,910.1094 1795.4921,908.7969 1797.2265,908.7969 C1797.8046,908.7969 1798.414,908.9531 1798.8828,909.2031 C1799.3671,909.4844 1799.539,909.7031 1799.6328,910.1094 C1799.6953,910.5156 1799.7265,910.6406 1799.8671,910.7656 C1800.0078,910.9063 1800.2421,911.0156 1800.4609,911.0156 C1800.7265,911.0156 1800.9921,910.875 1801.164,910.6563 C1801.2734,910.5 1801.3046,910.3125 1801.3046,909.8906 L1801.3046,908.4688 C1801.3046,908.0313 1801.289,907.9063 1801.1953,907.75 C1801.039,907.4844 1800.7578,907.3438 1800.4609,907.3438 C1800.164,907.3438 1799.9609,907.4375 1799.7421,907.75 L1799.5703,907.6719 Z " fill="#000000"/><text fill="#000000" font-family="sans-serif" font-size="14" lengthAdjust="spacing" textLength="95" x="1817.7265" y="916.8467">CreekResults</text><line style="stroke:#181818;stroke-width:0.5;" x1="1663.9765" x2="2033.9765" y1="928" y2="928"/><rect fill="none" height="6" style="stroke:#C82930;stroke-width:1.0;" width="6" x="1670.9765" y="938.6484"/><text fill="#000000" font-family="sans-serif" font-size="14" lengthAdjust="spacing" textLength="143" x="1682.9765" y="944.9951">creekResult : String</text><rect fill="none" height="6" style="stroke:#C82930;stroke-width:1.0;" width="6" x="1670.9765" y="954.9453"/><text fill="#000000" font-family="sans-serif" font-size="14" lengthAdjust="spacing" textLength="133" x="1682.9765" y="961.292">decision : Decision</text><line style="stroke:#181818;stroke-width:0.5;" x1="1663.9765" x2="2033.9765" y1="968.5938" y2="968.5938"/><ellipse cx="1673.9765" cy="982.2422" fill="#84BE84" rx="3" ry="3" style="stroke:#038048;stroke-width:1.0;"/><text fill="#000000" font-family="sans-serif" font-size="14" lengthAdjust="spacing" textLength="105" x="1682.9765" y="985.5889">CreekResults()</text><ellipse cx="1673.9765" cy="998.5391" fill="#84BE84" rx="3" ry="3" style="stroke:#038048;stroke-width:1.0;"/><text fill="#000000" font-family="sans-serif" font-size="14" lengthAdjust="spacing" textLength="346" x="1682.9765" y="1001.8857">useScanCreeks(resultData : JSONObject) : String</text></g><!--class GetPOIs--><g id="elem_GetPOIs"><rect codeLine="78" fill="#F1F1F1" height="80.5938" id="GetPOIs" rx="2.5" ry="2.5" style="stroke:#181818;stroke-width:0.5;" width="342" x="1478.9765" y="1070"/><ellipse cx="1616.7265" cy="1086" fill="#ADD1B2" rx="11" ry="11" style="stroke:#181818;stroke-width:1.0;"/><path d="M1619.0703,1081.6719 C1618.1328,1081.2344 1617.539,1081.0938 1616.664,1081.0938 C1614.039,1081.0938 1612.039,1083.1719 1612.039,1085.8906 L1612.039,1087.0156 C1612.039,1089.5938 1614.1484,1091.4844 1617.039,1091.4844 C1618.2578,1091.4844 1619.414,1091.1875 1620.164,1090.6406 C1620.7421,1090.2344 1621.0703,1089.7813 1621.0703,1089.3906 C1621.0703,1088.9375 1620.6796,1088.5469 1620.2109,1088.5469 C1619.9921,1088.5469 1619.789,1088.625 1619.6015,1088.8125 C1619.1484,1089.2969 1619.1484,1089.2969 1618.9609,1089.3906 C1618.539,1089.6563 1617.8515,1089.7813 1617.0859,1089.7813 C1615.039,1089.7813 1613.7421,1088.6875 1613.7421,1086.9844 L1613.7421,1085.8906 C1613.7421,1084.1094 1614.9921,1082.7969 1616.7265,1082.7969 C1617.3046,1082.7969 1617.914,1082.9531 1618.3828,1083.2031 C1618.8671,1083.4844 1619.039,1083.7031 1619.1328,1084.1094 C1619.1953,1084.5156 1619.2265,1084.6406 1619.3671,1084.7656 C1619.5078,1084.9063 1619.7421,1085.0156 1619.9609,1085.0156 C1620.2265,1085.0156 1620.4921,1084.875 1620.664,1084.6563 C1620.7734,1084.5 1620.8046,1084.3125 1620.8046,1083.8906 L1620.8046,1082.4688 C1620.8046,1082.0313 1620.789,1081.9063 1620.6953,1081.75 C1620.539,1081.4844 1620.2578,1081.3438 1619.9609,1081.3438 C1619.664,1081.3438 1619.4609,1081.4375 1619.2421,1081.75 L1619.0703,1081.6719 Z " fill="#000000"/><text fill="#000000" font-family="sans-serif" font-size="14" lengthAdjust="spacing" textLength="58" x="1637.2265" y="1090.8467">GetPOIs</text><line style="stroke:#181818;stroke-width:0.5;" x1="1479.9765" x2="1819.9765" y1="1102" y2="1102"/><line style="stroke:#181818;stroke-width:0.5;" x1="1479.9765" x2="1819.9765" y1="1110" y2="1110"/><ellipse cx="1489.9765" cy="1123.6484" fill="#84BE84" rx="3" ry="3" style="stroke:#038048;stroke-width:1.0;"/><text fill="#000000" font-family="sans-serif" font-size="14" lengthAdjust="spacing" textLength="316" x="1498.9765" y="1126.9951">scan_creeks(extraInfo : JSONObject) : String</text><ellipse cx="1489.9765" cy="1139.9453" fill="#84BE84" rx="3" ry="3" style="stroke:#038048;stroke-width:1.0;"/><text fill="#000000" font-family="sans-serif" font-size="14" lengthAdjust="spacing" textLength="295" x="1498.9765" y="1143.292">scan_site(extraInfo : JSONObject) : String</text></g><!--class Battery--><g id="elem_Battery"><rect codeLine="101" fill="#F1F1F1" height="80.5938" id="Battery" rx="2.5" ry="2.5" style="stroke:#181818;stroke-width:0.5;" width="184" x="1880.9765" y="424"/><ellipse cx="1941.2265" cy="440" fill="#ADD1B2" rx="11" ry="11" style="stroke:#181818;stroke-width:1.0;"/><path d="M1943.5703,435.6719 C1942.6328,435.2344 1942.039,435.0938 1941.164,435.0938 C1938.539,435.0938 1936.539,437.1719 1936.539,439.8906 L1936.539,441.0156 C1936.539,443.5938 1938.6484,445.4844 1941.539,445.4844 C1942.7578,445.4844 1943.914,445.1875 1944.664,444.6406 C1945.2421,444.2344 1945.5703,443.7813 1945.5703,443.3906 C1945.5703,442.9375 1945.1796,442.5469 1944.7109,442.5469 C1944.4921,442.5469 1944.289,442.625 1944.1015,442.8125 C1943.6484,443.2969 1943.6484,443.2969 1943.4609,443.3906 C1943.039,443.6563 1942.3515,443.7813 1941.5859,443.7813 C1939.539,443.7813 1938.2421,442.6875 1938.2421,440.9844 L1938.2421,439.8906 C1938.2421,438.1094 1939.4921,436.7969 1941.2265,436.7969 C1941.8046,436.7969 1942.414,436.9531 1942.8828,437.2031 C1943.3671,437.4844 1943.539,437.7031 1943.6328,438.1094 C1943.6953,438.5156 1943.7265,438.6406 1943.8671,438.7656 C1944.0078,438.9063 1944.2421,439.0156 1944.4609,439.0156 C1944.7265,439.0156 1944.9921,438.875 1945.164,438.6563 C1945.2734,438.5 1945.3046,438.3125 1945.3046,437.8906 L1945.3046,436.4688 C1945.3046,436.0313 1945.289,435.9063 1945.1953,435.75 C1945.039,435.4844 1944.7578,435.3438 1944.4609,435.3438 C1944.164,435.3438 1943.9609,435.4375 1943.7421,435.75 L1943.5703,435.6719 Z " fill="#000000"/><text fill="#000000" font-family="sans-serif" font-size="14" lengthAdjust="spacing" textLength="55" x="1961.7265" y="444.8467">Battery</text><line style="stroke:#181818;stroke-width:0.5;" x1="1881.9765" x2="2063.9765" y1="456" y2="456"/><line style="stroke:#181818;stroke-width:0.5;" x1="1881.9765" x2="2063.9765" y1="464" y2="464"/><ellipse cx="1891.9765" cy="477.6484" fill="#84BE84" rx="3" ry="3" style="stroke:#038048;stroke-width:1.0;"/><text fill="#000000" font-family="sans-serif" font-size="14" lengthAdjust="spacing" textLength="158" x="1900.9765" y="480.9951">getInit(s: String): void</text><ellipse cx="1891.9765" cy="493.9453" fill="#84BE84" rx="3" ry="3" style="stroke:#038048;stroke-width:1.0;"/><text fill="#000000" font-family="sans-serif" font-size="14" lengthAdjust="spacing" textLength="152" x="1900.9765" y="497.292">getBattery(): Integer</text></g><!--class Budget--><g id="elem_Budget"><rect codeLine="106" fill="#F1F1F1" height="64.2969" id="Budget" rx="2.5" ry="2.5" style="stroke:#181818;stroke-width:0.5;" width="455" x="2100.4765" y="432.5"/><ellipse cx="2297.7265" cy="448.5" fill="#ADD1B2" rx="11" ry="11" style="stroke:#181818;stroke-width:1.0;"/><path d="M2300.0702,444.1719 C2299.1327,443.7344 2298.539,443.5938 2297.664,443.5938 C2295.039,443.5938 2293.039,445.6719 2293.039,448.3906 L2293.039,449.5156 C2293.039,452.0938 2295.1484,453.9844 2298.039,453.9844 C2299.2577,453.9844 2300.414,453.6875 2301.164,453.1406 C2301.7421,452.7344 2302.0702,452.2813 2302.0702,451.8906 C2302.0702,451.4375 2301.6796,451.0469 2301.2109,451.0469 C2300.9921,451.0469 2300.789,451.125 2300.6015,451.3125 C2300.1484,451.7969 2300.1484,451.7969 2299.9609,451.8906 C2299.539,452.1563 2298.8515,452.2813 2298.0859,452.2813 C2296.039,452.2813 2294.7421,451.1875 2294.7421,449.4844 L2294.7421,448.3906 C2294.7421,446.6094 2295.9921,445.2969 2297.7265,445.2969 C2298.3046,445.2969 2298.914,445.4531 2299.3827,445.7031 C2299.8671,445.9844 2300.039,446.2031 2300.1327,446.6094 C2300.1952,447.0156 2300.2265,447.1406 2300.3671,447.2656 C2300.5077,447.4063 2300.7421,447.5156 2300.9609,447.5156 C2301.2265,447.5156 2301.4921,447.375 2301.664,447.1563 C2301.7734,447 2301.8046,446.8125 2301.8046,446.3906 L2301.8046,444.9688 C2301.8046,444.5313 2301.789,444.4063 2301.6952,444.25 C2301.539,443.9844 2301.2577,443.8438 2300.9609,443.8438 C2300.664,443.8438 2300.4609,443.9375 2300.2421,444.25 L2300.0702,444.1719 Z " fill="#000000"/><text fill="#000000" font-family="sans-serif" font-size="14" lengthAdjust="spacing" textLength="52" x="2318.2265" y="453.3467">Budget</text><line style="stroke:#181818;stroke-width:0.5;" x1="2101.4765" x2="2554.4765" y1="464.5" y2="464.5"/><line style="stroke:#181818;stroke-width:0.5;" x1="2101.4765" x2="2554.4765" y1="472.5" y2="472.5"/><ellipse cx="2111.4765" cy="486.1484" fill="#84BE84" rx="3" ry="3" style="stroke:#038048;stroke-width:1.0;"/><text fill="#000000" font-family="sans-serif" font-size="14" lengthAdjust="spacing" textLength="429" x="2120.4765" y="489.4951">getDifference(battery: Integer, totalCost: Integer): Integer</text></g><!--class Cost--><g id="elem_Cost"><rect codeLine="110" fill="#F1F1F1" height="80.5938" id="Cost" rx="2.5" ry="2.5" style="stroke:#181818;stroke-width:0.5;" width="183" x="2590.4765" y="424"/><ellipse cx="2661.2265" cy="440" fill="#ADD1B2" rx="11" ry="11" style="stroke:#181818;stroke-width:1.0;"/><path d="M2663.5702,435.6719 C2662.6327,435.2344 2662.039,435.0938 2661.164,435.0938 C2658.539,435.0938 2656.539,437.1719 2656.539,439.8906 L2656.539,441.0156 C2656.539,443.5938 2658.6484,445.4844 2661.539,445.4844 C2662.7577,445.4844 2663.914,445.1875 2664.664,444.6406 C2665.2421,444.2344 2665.5702,443.7813 2665.5702,443.3906 C2665.5702,442.9375 2665.1796,442.5469 2664.7109,442.5469 C2664.4921,442.5469 2664.289,442.625 2664.1015,442.8125 C2663.6484,443.2969 2663.6484,443.2969 2663.4609,443.3906 C2663.039,443.6563 2662.3515,443.7813 2661.5859,443.7813 C2659.539,443.7813 2658.2421,442.6875 2658.2421,440.9844 L2658.2421,439.8906 C2658.2421,438.1094 2659.4921,436.7969 2661.2265,436.7969 C2661.8046,436.7969 2662.414,436.9531 2662.8827,437.2031 C2663.3671,437.4844 2663.539,437.7031 2663.6327,438.1094 C2663.6952,438.5156 2663.7265,438.6406 2663.8671,438.7656 C2664.0077,438.9063 2664.2421,439.0156 2664.4609,439.0156 C2664.7265,439.0156 2664.9921,438.875 2665.164,438.6563 C2665.2734,438.5 2665.3046,438.3125 2665.3046,437.8906 L2665.3046,436.4688 C2665.3046,436.0313 2665.289,435.9063 2665.1952,435.75 C2665.039,435.4844 2664.7577,435.3438 2664.4609,435.3438 C2664.164,435.3438 2663.9609,435.4375 2663.7421,435.75 L2663.5702,435.6719 Z " fill="#000000"/><text fill="#000000" font-family="sans-serif" font-size="14" lengthAdjust="spacing" textLength="33" x="2681.7265" y="444.8467">Cost</text><line style="stroke:#181818;stroke-width:0.5;" x1="2591.4765" x2="2772.4765" y1="456" y2="456"/><line style="stroke:#181818;stroke-width:0.5;" x1="2591.4765" x2="2772.4765" y1="464" y2="464"/><ellipse cx="2601.4765" cy="477.6484" fill="#84BE84" rx="3" ry="3" style="stroke:#038048;stroke-width:1.0;"/><text fill="#000000" font-family="sans-serif" font-size="14" lengthAdjust="spacing" textLength="157" x="2610.4765" y="480.9951">getCost(s: String): int</text><ellipse cx="2601.4765" cy="493.9453" fill="#84BE84" rx="3" ry="3" style="stroke:#038048;stroke-width:1.0;"/><text fill="#000000" font-family="sans-serif" font-size="14" lengthAdjust="spacing" textLength="129" x="2610.4765" y="497.292">useCost(): Integer</text></g><!--class Explorer--><g id="elem_Explorer"><rect codeLine="1" fill="#F1F1F1" height="113.1875" id="Explorer" rx="2.5" ry="2.5" style="stroke:#181818;stroke-width:0.5;" width="293" x="1518.4765" y="7"/><ellipse cx="1630.2265" cy="23" fill="#ADD1B2" rx="11" ry="11" style="stroke:#181818;stroke-width:1.0;"/><path d="M1632.5703,18.6719 C1631.6328,18.2344 1631.039,18.0938 1630.164,18.0938 C1627.539,18.0938 1625.539,20.1719 1625.539,22.8906 L1625.539,24.0156 C1625.539,26.5938 1627.6484,28.4844 1630.539,28.4844 C1631.7578,28.4844 1632.914,28.1875 1633.664,27.6406 C1634.2421,27.2344 1634.5703,26.7813 1634.5703,26.3906 C1634.5703,25.9375 1634.1796,25.5469 1633.7109,25.5469 C1633.4921,25.5469 1633.289,25.625 1633.1015,25.8125 C1632.6484,26.2969 1632.6484,26.2969 1632.4609,26.3906 C1632.039,26.6563 1631.3515,26.7813 1630.5859,26.7813 C1628.539,26.7813 1627.2421,25.6875 1627.2421,23.9844 L1627.2421,22.8906 C1627.2421,21.1094 1628.4921,19.7969 1630.2265,19.7969 C1630.8046,19.7969 1631.414,19.9531 1631.8828,20.2031 C1632.3671,20.4844 1632.539,20.7031 1632.6328,21.1094 C1632.6953,21.5156 1632.7265,21.6406 1632.8671,21.7656 C1633.0078,21.9063 1633.2421,22.0156 1633.4609,22.0156 C1633.7265,22.0156 1633.9921,21.875 1634.164,21.6563 C1634.2734,21.5 1634.3046,21.3125 1634.3046,20.8906 L1634.3046,19.4688 C1634.3046,19.0313 1634.289,18.9063 1634.1953,18.75 C1634.039,18.4844 1633.7578,18.3438 1633.4609,18.3438 C1633.164,18.3438 1632.9609,18.4375 1632.7421,18.75 L1632.5703,18.6719 Z " fill="#000000"/><text fill="#000000" font-family="sans-serif" font-size="14" lengthAdjust="spacing" textLength="61" x="1650.7265" y="27.8467">Explorer</text><line style="stroke:#181818;stroke-width:0.5;" x1="1519.4765" x2="1810.4765" y1="39" y2="39"/><line style="stroke:#181818;stroke-width:0.5;" x1="1519.4765" x2="1810.4765" y1="47" y2="47"/><ellipse cx="1529.4765" cy="60.6484" fill="#84BE84" rx="3" ry="3" style="stroke:#038048;stroke-width:1.0;"/><text fill="#000000" font-family="sans-serif" font-size="14" lengthAdjust="spacing" textLength="182" x="1538.4765" y="63.9951">^initialize(s: String): void</text><ellipse cx="1529.4765" cy="76.9453" fill="#84BE84" rx="3" ry="3" style="stroke:#038048;stroke-width:1.0;"/><text fill="#000000" font-family="sans-serif" font-size="14" lengthAdjust="spacing" textLength="169" x="1538.4765" y="80.292">^takeDecision(): String</text><ellipse cx="1529.4765" cy="93.2422" fill="#84BE84" rx="3" ry="3" style="stroke:#038048;stroke-width:1.0;"/><text fill="#000000" font-family="sans-serif" font-size="14" lengthAdjust="spacing" textLength="267" x="1538.4765" y="96.5889">^acknowledgeResults(s: String): void</text><ellipse cx="1529.4765" cy="109.5391" fill="#84BE84" rx="3" ry="3" style="stroke:#038048;stroke-width:1.0;"/><text fill="#000000" font-family="sans-serif" font-size="14" lengthAdjust="spacing" textLength="208" x="1538.4765" y="112.8857">^deliverFinalReport(): String</text></g><!--class Position--><g id="elem_Position"><rect codeLine="37" fill="#F1F1F1" height="96.8906" id="Position" rx="2.5" ry="2.5" style="stroke:#181818;stroke-width:0.5;" width="316" x="77.9743" y="606"/><ellipse cx="202.7243" cy="622" fill="#ADD1B2" rx="11" ry="11" style="stroke:#181818;stroke-width:1.0;"/><path d="M205.0681,617.6719 C204.1306,617.2344 203.5368,617.0938 202.6618,617.0938 C200.0368,617.0938 198.0368,619.1719 198.0368,621.8906 L198.0368,623.0156 C198.0368,625.5938 200.1462,627.4844 203.0368,627.4844 C204.2556,627.4844 205.4118,627.1875 206.1618,626.6406 C206.7399,626.2344 207.0681,625.7813 207.0681,625.3906 C207.0681,624.9375 206.6774,624.5469 206.2087,624.5469 C205.9899,624.5469 205.7868,624.625 205.5993,624.8125 C205.1462,625.2969 205.1462,625.2969 204.9587,625.3906 C204.5368,625.6563 203.8493,625.7813 203.0837,625.7813 C201.0368,625.7813 199.7399,624.6875 199.7399,622.9844 L199.7399,621.8906 C199.7399,620.1094 200.9899,618.7969 202.7243,618.7969 C203.3024,618.7969 203.9118,618.9531 204.3806,619.2031 C204.8649,619.4844 205.0368,619.7031 205.1306,620.1094 C205.1931,620.5156 205.2243,620.6406 205.3649,620.7656 C205.5056,620.9063 205.7399,621.0156 205.9587,621.0156 C206.2243,621.0156 206.4899,620.875 206.6618,620.6563 C206.7712,620.5 206.8024,620.3125 206.8024,619.8906 L206.8024,618.4688 C206.8024,618.0313 206.7868,617.9063 206.6931,617.75 C206.5368,617.4844 206.2556,617.3438 205.9587,617.3438 C205.6618,617.3438 205.4587,617.4375 205.2399,617.75 L205.0681,617.6719 Z " fill="#000000"/><text fill="#000000" font-family="sans-serif" font-size="14" lengthAdjust="spacing" textLength="58" x="223.2243" y="626.8467">Position</text><line style="stroke:#181818;stroke-width:0.5;" x1="78.9743" x2="392.9743" y1="638" y2="638"/><line style="stroke:#181818;stroke-width:0.5;" x1="78.9743" x2="392.9743" y1="646" y2="646"/><ellipse cx="88.9743" cy="659.6484" fill="#84BE84" rx="3" ry="3" style="stroke:#038048;stroke-width:1.0;"/><text fill="#000000" font-family="sans-serif" font-size="14" lengthAdjust="spacing" textLength="290" x="97.9743" y="662.9951">updateDecision(decision: Decision): void</text><ellipse cx="88.9743" cy="675.9453" fill="#84BE84" rx="3" ry="3" style="stroke:#038048;stroke-width:1.0;"/><text fill="#000000" font-family="sans-serif" font-size="14" lengthAdjust="spacing" textLength="167" x="97.9743" y="679.292">change_position(): void</text><ellipse cx="88.9743" cy="692.2422" fill="#84BE84" rx="3" ry="3" style="stroke:#038048;stroke-width:1.0;"/><text fill="#000000" font-family="sans-serif" font-size="14" lengthAdjust="spacing" textLength="154" x="97.9743" y="695.5889">get_position(): String</text></g><!--class Direction--><g id="elem_Direction"><rect codeLine="43" fill="#F1F1F1" height="129.4844" id="Direction" rx="2.5" ry="2.5" style="stroke:#181818;stroke-width:0.5;" width="401" x="66.4743" y="400"/><ellipse cx="229.2243" cy="416" fill="#EB937F" rx="11" ry="11" style="stroke:#181818;stroke-width:1.0;"/><path d="M228.0212,416.875 L229.4743,416.875 L229.4743,416.9844 C229.4743,417.3906 229.5056,417.5469 229.5837,417.7031 C229.7399,417.9531 230.0212,418.1094 230.3181,418.1094 C230.5681,418.1094 230.8337,417.9688 230.9899,417.75 C231.1149,417.5938 231.1462,417.4375 231.1462,416.9844 L231.1462,415.0625 C231.1462,414.9063 231.1462,414.8594 231.1306,414.7031 C231.0681,414.2344 230.7556,413.9219 230.3024,413.9219 C230.0524,413.9219 229.7868,414.0625 229.6149,414.2813 C229.5056,414.4531 229.4743,414.6094 229.4743,415.0625 L229.4743,415.1875 L228.0212,415.1875 L228.0212,412.7813 L232.0056,412.7813 L232.0056,413.6406 C232.0056,414.0469 232.0368,414.2188 232.1149,414.375 C232.2868,414.625 232.5681,414.7813 232.8493,414.7813 C233.1149,414.7813 233.3806,414.6406 233.5524,414.4219 C233.6618,414.25 233.6931,414.1094 233.6931,413.6406 L233.6931,411.0938 L226.0681,411.0938 C225.6306,411.0938 225.5056,411.1094 225.3493,411.2031 C225.0993,411.3594 224.9431,411.6563 224.9431,411.9375 C224.9431,412.2188 225.0837,412.4688 225.3024,412.6406 C225.4587,412.75 225.6462,412.7813 226.0681,412.7813 L226.3181,412.7813 L226.3181,419.2969 L226.0681,419.2969 C225.6618,419.2969 225.5056,419.3125 225.3493,419.4219 C225.0993,419.5938 224.9431,419.8594 224.9431,420.1563 C224.9431,420.4219 225.0837,420.6719 225.3024,420.8281 C225.4431,420.9531 225.6774,421 226.0681,421 L234.0681,421 L234.0681,418.4219 C234.0681,417.9844 234.0368,417.8438 233.9587,417.6875 C233.7868,417.4375 233.5056,417.2813 233.2243,417.2813 C232.9587,417.2813 232.6931,417.3906 232.5212,417.6406 C232.4118,417.7969 232.3806,417.9375 232.3806,418.4219 L232.3806,419.2969 L228.0212,419.2969 L228.0212,416.875 Z " fill="#000000"/><text fill="#000000" font-family="sans-serif" font-size="14" lengthAdjust="spacing" textLength="67" x="249.7243" y="420.8467">Direction</text><line style="stroke:#181818;stroke-width:0.5;" x1="67.4743" x2="466.4743" y1="432" y2="432"/><line style="stroke:#181818;stroke-width:0.5;" x1="67.4743" x2="466.4743" y1="440" y2="440"/><ellipse cx="77.4743" cy="453.6484" fill="#84BE84" rx="3" ry="3" style="stroke:#038048;stroke-width:1.0;"/><text fill="#000000" font-family="sans-serif" font-size="14" lengthAdjust="spacing" textLength="245" x="86.4743" y="456.9951">getOppositeDirection(): Direction</text><ellipse cx="77.4743" cy="469.9453" fill="#84BE84" rx="3" ry="3" style="stroke:#038048;stroke-width:1.0;"/><text fill="#000000" font-family="sans-serif" font-size="14" lengthAdjust="spacing" textLength="208" x="86.4743" y="473.292">getLeftDirection(): Direction</text><ellipse cx="77.4743" cy="486.2422" fill="#84BE84" rx="3" ry="3" style="stroke:#038048;stroke-width:1.0;"/><text fill="#000000" font-family="sans-serif" font-size="14" lengthAdjust="spacing" textLength="217" x="86.4743" y="489.5889">getRightDirection(): Direction</text><ellipse cx="77.4743" cy="502.5391" fill="#84BE84" rx="3" ry="3" style="stroke:#038048;stroke-width:1.0;"/><text fill="#000000" font-family="sans-serif" font-size="14" lengthAdjust="spacing" textLength="375" x="86.4743" y="505.8857">stringToDirection(directionString: String): Direction</text><ellipse cx="77.4743" cy="518.8359" fill="#84BE84" rx="3" ry="3" style="stroke:#038048;stroke-width:1.0;"/><text fill="#000000" font-family="sans-serif" font-size="14" lengthAdjust="spacing" textLength="190" x="86.4743" y="522.1826">directionToString(): String</text></g><!--class Result--><g id="elem_Result"><rect codeLine="84" fill="#F1F1F1" height="96.8906" id="Result" rx="2.5" ry="2.5" style="stroke:#181818;stroke-width:0.5;" width="320" x="1021.9765" y="213"/><ellipse cx="1155.2265" cy="229" fill="#ADD1B2" rx="11" ry="11" style="stroke:#181818;stroke-width:1.0;"/><path d="M1157.5703,224.6719 C1156.6328,224.2344 1156.039,224.0938 1155.164,224.0938 C1152.539,224.0938 1150.539,226.1719 1150.539,228.8906 L1150.539,230.0156 C1150.539,232.5938 1152.6484,234.4844 1155.539,234.4844 C1156.7578,234.4844 1157.914,234.1875 1158.664,233.6406 C1159.2421,233.2344 1159.5703,232.7813 1159.5703,232.3906 C1159.5703,231.9375 1159.1796,231.5469 1158.7109,231.5469 C1158.4921,231.5469 1158.289,231.625 1158.1015,231.8125 C1157.6484,232.2969 1157.6484,232.2969 1157.4609,232.3906 C1157.039,232.6563 1156.3515,232.7813 1155.5859,232.7813 C1153.539,232.7813 1152.2421,231.6875 1152.2421,229.9844 L1152.2421,228.8906 C1152.2421,227.1094 1153.4921,225.7969 1155.2265,225.7969 C1155.8046,225.7969 1156.414,225.9531 1156.8828,226.2031 C1157.3671,226.4844 1157.539,226.7031 1157.6328,227.1094 C1157.6953,227.5156 1157.7265,227.6406 1157.8671,227.7656 C1158.0078,227.9063 1158.2421,228.0156 1158.4609,228.0156 C1158.7265,228.0156 1158.9921,227.875 1159.164,227.6563 C1159.2734,227.5 1159.3046,227.3125 1159.3046,226.8906 L1159.3046,225.4688 C1159.3046,225.0313 1159.289,224.9063 1159.1953,224.75 C1159.039,224.4844 1158.7578,224.3438 1158.4609,224.3438 C1158.164,224.3438 1157.9609,224.4375 1157.7421,224.75 L1157.5703,224.6719 Z " fill="#000000"/><text fill="#000000" font-family="sans-serif" font-size="14" lengthAdjust="spacing" textLength="45" x="1175.7265" y="233.8467">Result</text><line style="stroke:#181818;stroke-width:0.5;" x1="1022.9765" x2="1340.9765" y1="245" y2="245"/><line style="stroke:#181818;stroke-width:0.5;" x1="1022.9765" x2="1340.9765" y1="253" y2="253"/><ellipse cx="1032.9765" cy="266.6484" fill="#84BE84" rx="3" ry="3" style="stroke:#038048;stroke-width:1.0;"/><text fill="#000000" font-family="sans-serif" font-size="14" lengthAdjust="spacing" textLength="243" x="1041.9765" y="269.9951">printResult(s: String): JSONObject</text><ellipse cx="1032.9765" cy="282.9453" fill="#84BE84" rx="3" ry="3" style="stroke:#038048;stroke-width:1.0;"/><text fill="#000000" font-family="sans-serif" font-size="14" lengthAdjust="spacing" textLength="280" x="1041.9765" y="286.292">echo_result(extraInfo: JSONObject): int</text><ellipse cx="1032.9765" cy="299.2422" fill="#84BE84" rx="3" ry="3" style="stroke:#038048;stroke-width:1.0;"/><text fill="#000000" font-family="sans-serif" font-size="14" lengthAdjust="spacing" textLength="294" x="1041.9765" y="302.5889">border_range(extraInfo: JSONObject): int</text></g><!--class Initialize--><g id="elem_Initialize"><rect codeLine="90" fill="#F1F1F1" height="129.4844" id="Initialize" rx="2.5" ry="2.5" style="stroke:#181818;stroke-width:0.5;" width="206" x="1873.9765" y="197"/><ellipse cx="1942.2265" cy="213" fill="#ADD1B2" rx="11" ry="11" style="stroke:#181818;stroke-width:1.0;"/><path d="M1944.5703,208.6719 C1943.6328,208.2344 1943.039,208.0938 1942.164,208.0938 C1939.539,208.0938 1937.539,210.1719 1937.539,212.8906 L1937.539,214.0156 C1937.539,216.5938 1939.6484,218.4844 1942.539,218.4844 C1943.7578,218.4844 1944.914,218.1875 1945.664,217.6406 C1946.2421,217.2344 1946.5703,216.7813 1946.5703,216.3906 C1946.5703,215.9375 1946.1796,215.5469 1945.7109,215.5469 C1945.4921,215.5469 1945.289,215.625 1945.1015,215.8125 C1944.6484,216.2969 1944.6484,216.2969 1944.4609,216.3906 C1944.039,216.6563 1943.3515,216.7813 1942.5859,216.7813 C1940.539,216.7813 1939.2421,215.6875 1939.2421,213.9844 L1939.2421,212.8906 C1939.2421,211.1094 1940.4921,209.7969 1942.2265,209.7969 C1942.8046,209.7969 1943.414,209.9531 1943.8828,210.2031 C1944.3671,210.4844 1944.539,210.7031 1944.6328,211.1094 C1944.6953,211.5156 1944.7265,211.6406 1944.8671,211.7656 C1945.0078,211.9063 1945.2421,212.0156 1945.4609,212.0156 C1945.7265,212.0156 1945.9921,211.875 1946.164,211.6563 C1946.2734,211.5 1946.3046,211.3125 1946.3046,210.8906 L1946.3046,209.4688 C1946.3046,209.0313 1946.289,208.9063 1946.1953,208.75 C1946.039,208.4844 1945.7578,208.3438 1945.4609,208.3438 C1945.164,208.3438 1944.9609,208.4375 1944.7421,208.75 L1944.5703,208.6719 Z " fill="#000000"/><text fill="#000000" font-family="sans-serif" font-size="14" lengthAdjust="spacing" textLength="61" x="1962.7265" y="217.8467">Initialize</text><line style="stroke:#181818;stroke-width:0.5;" x1="1874.9765" x2="2078.9765" y1="229" y2="229"/><rect fill="none" height="6" style="stroke:#C82930;stroke-width:1.0;" width="6" x="1881.9765" y="239.6484"/><text fill="#000000" font-family="sans-serif" font-size="14" lengthAdjust="spacing" textLength="126" x="1893.9765" y="245.9951">batteryLevel : int</text><rect fill="none" height="6" style="stroke:#C82930;stroke-width:1.0;" width="6" x="1881.9765" y="255.9453"/><text fill="#000000" font-family="sans-serif" font-size="14" lengthAdjust="spacing" textLength="122" x="1893.9765" y="262.292">direction : String</text><line style="stroke:#181818;stroke-width:1.0;" x1="1874.9765" x2="2078.9765" y1="269.5938" y2="269.5938"/><ellipse cx="1884.9765" cy="283.2422" fill="#84BE84" rx="3" ry="3" style="stroke:#038048;stroke-width:1.0;"/><text fill="#000000" font-family="sans-serif" font-size="14" lengthAdjust="spacing" textLength="180" x="1893.9765" y="286.5889">setInitial(s : String) : void</text><ellipse cx="1884.9765" cy="299.5391" fill="#84BE84" rx="3" ry="3" style="stroke:#038048;stroke-width:1.0;"/><text fill="#000000" font-family="sans-serif" font-size="14" lengthAdjust="spacing" textLength="161" x="1893.9765" y="302.8857">getBatteryLevel() : int</text><ellipse cx="1884.9765" cy="315.8359" fill="#84BE84" rx="3" ry="3" style="stroke:#038048;stroke-width:1.0;"/><text fill="#000000" font-family="sans-serif" font-size="14" lengthAdjust="spacing" textLength="159" x="1893.9765" y="319.1826">getDirection() : String</text></g><!--reverse link DecisionState to FindLand--><g id="link_DecisionState_FindLand"><path d="M835.3311,691.3588 C760.6101,712.2968 681.2425,736.201 596.4715,763.838 " fill="none" id="DecisionState-backto-FindLand" style="stroke:#181818;stroke-width:1.0;stroke-dasharray:7.0,7.0;"/><polygon fill="none" points="852.6635,686.502,833.7122,685.5813,836.9501,697.1363,852.6635,686.502" style="stroke:#181818;stroke-width:1.0;"/></g><!--reverse link DecisionState to FindLand--><g id="link_DecisionState_FindLand"><path codeLine="117" d="M865.2104,691.6934 C795.5614,712.6724 715.8635,736.313 630.9745,764 C619.9355,767.6 607.9295,771.774 596.2955,775.571 " fill="none" id="DecisionState-backto-FindLand-1" style="stroke:#181818;stroke-width:1.0;"/><polygon fill="none" points="882.4455,686.502,863.4799,685.9484,866.9408,697.4384,882.4455,686.502" style="stroke:#181818;stroke-width:1.0;"/></g><!--reverse link DecisionState to FlyingToLand--><g id="link_DecisionState_FlyingToLand"><path d="M881.6598,693.9629 C828.2428,717.6589 776.2615,742.435 733.5775,763.878 " fill="none" id="DecisionState-backto-FlyingToLand" style="stroke:#181818;stroke-width:1.0;stroke-dasharray:7.0,7.0;"/><polygon fill="none" points="898.1135,686.664,879.2268,688.4784,884.0927,699.4475,898.1135,686.664" style="stroke:#181818;stroke-width:1.0;"/></g><!--reverse link DecisionState to FlyingToLand--><g id="link_DecisionState_FlyingToLand"><path codeLine="118" d="M904.6799,694.6234 C856.6159,718.3194 803.6055,742.435 754.1285,763.878 " fill="none" id="DecisionState-backto-FlyingToLand-1" style="stroke:#181818;stroke-width:1.0;"/><polygon fill="none" points="920.8245,686.664,902.0268,689.2419,907.3331,700.005,920.8245,686.664" style="stroke:#181818;stroke-width:1.0;"/></g><!--reverse link DecisionState to ScanLeft--><g id="link_DecisionState_ScanLeft"><path d="M919.1613,698.5104 C892.0533,722.2064 872.7825,742.435 853.9055,763.878 " fill="none" id="DecisionState-backto-ScanLeft" style="stroke:#181818;stroke-width:1.0;stroke-dasharray:7.0,7.0;"/><polygon fill="none" points="932.7135,686.664,915.2125,693.993,923.1101,703.0278,932.7135,686.664" style="stroke:#181818;stroke-width:1.0;"/></g><!--reverse link DecisionState to ScanLeft--><g id="link_DecisionState_ScanLeft"><path codeLine="119" d="M943.2515,699.9237 C921.4975,723.6197 900.1275,742.435 874.4565,763.878 " fill="none" id="DecisionState-backto-ScanLeft-1" style="stroke:#181818;stroke-width:1.0;"/><polygon fill="none" points="955.4245,686.664,938.8316,695.866,947.6714,703.9813,955.4245,686.664" style="stroke:#181818;stroke-width:1.0;"/></g><!--reverse link DecisionState to ScanRight--><g id="link_DecisionState_ScanRight"><path d="M962.9803,704.5566 C960.3803,728.2526 962.6925,742.435 965.9925,763.878 " fill="none" id="DecisionState-backto-ScanRight" style="stroke:#181818;stroke-width:1.0;stroke-dasharray:7.0,7.0;"/><polygon fill="none" points="964.9435,686.664,957.0161,703.9022,968.9445,705.211,964.9435,686.664" style="stroke:#181818;stroke-width:1.0;"/></g><!--reverse link DecisionState to ScanRight--><g id="link_DecisionState_ScanRight"><path codeLine="120" d="M989.7318,704.5437 C992.4848,728.2397 990.0375,742.435 986.5435,763.878 " fill="none" id="DecisionState-backto-ScanRight-1" style="stroke:#181818;stroke-width:1.0;"/><polygon fill="none" points="987.6545,686.664,983.7719,705.2362,995.6917,703.8513,987.6545,686.664" style="stroke:#181818;stroke-width:1.0;"/></g><!--reverse link DecisionState to Stop--><g id="link_DecisionState_Stop"><path d="M1004.9517,700.6482 C1024.1557,724.3442 1042.6865,742.435 1065.7165,763.878 " fill="none" id="DecisionState-backto-Stop" style="stroke:#181818;stroke-width:1.0;stroke-dasharray:7.0,7.0;"/><polygon fill="none" points="993.6185,686.664,1000.2903,704.4259,1009.6131,696.8704,993.6185,686.664" style="stroke:#181818;stroke-width:1.0;"/></g><!--reverse link DecisionState to Stop--><g id="link_DecisionState_Stop"><path codeLine="121" d="M1029.2825,699.1628 C1053.8395,722.8588 1070.0265,742.435 1086.2665,763.878 " fill="none" id="DecisionState-backto-Stop-1" style="stroke:#181818;stroke-width:1.0;"/><polygon fill="none" points="1016.3295,686.664,1025.1162,703.4805,1033.4487,694.8452,1016.3295,686.664" style="stroke:#181818;stroke-width:1.0;"/></g><!--reverse link DecisionState to TurnLeft--><g id="link_DecisionState_TurnLeft"><path d="M1036.6038,695.8201 C1078.1238,720.3511 1123.4965,744.707 1165.6965,766.106 " fill="none" id="DecisionState-backto-TurnLeft" style="stroke:#181818;stroke-width:1.0;stroke-dasharray:7.0,7.0;"/><polygon fill="none" points="1021.1065,686.664,1033.5517,700.9859,1039.6558,690.6544,1021.1065,686.664" style="stroke:#181818;stroke-width:1.0;"/></g><!--reverse link DecisionState to TurnLeft--><g id="link_DecisionState_TurnLeft"><path codeLine="122" d="M1059.7782,694.984 C1105.2382,718.68 1146.7165,742.435 1181.8665,763.878 " fill="none" id="DecisionState-backto-TurnLeft-1" style="stroke:#181818;stroke-width:1.0;"/><polygon fill="none" points="1043.8165,686.664,1057.0049,700.3046,1062.5516,689.6635,1043.8165,686.664" style="stroke:#181818;stroke-width:1.0;"/></g><!--reverse link DecisionState to TurnRight--><g id="link_DecisionState_TurnRight"><path d="M1069.7547,692.892 C1142.4547,719.702 1232.2965,751.01 1295.3865,771.738 " fill="none" id="DecisionState-backto-TurnRight" style="stroke:#181818;stroke-width:1.0;stroke-dasharray:7.0,7.0;"/><polygon fill="none" points="1052.8665,686.664,1067.6787,698.5214,1071.8307,687.2626,1052.8665,686.664" style="stroke:#181818;stroke-width:1.0;"/></g><!--reverse link DecisionState to TurnRight--><g id="link_DecisionState_TurnRight"><path codeLine="123" d="M1092.6161,692.4651 C1163.4461,716.5791 1238.4865,743.569 1295.2965,765.002 " fill="none" id="DecisionState-backto-TurnRight-1" style="stroke:#181818;stroke-width:1.0;"/><polygon fill="none" points="1075.5765,686.664,1090.6824,698.145,1094.5498,686.7852,1075.5765,686.664" style="stroke:#181818;stroke-width:1.0;"/></g><!--link Decision to DecisionState--><g id="link_Decision_DecisionState"><path codeLine="116" d="M975.9745,521.143 C975.9745,554.167 975.9745,594.814 975.9745,622.284 " fill="none" id="Decision-DecisionState" style="stroke:#181818;stroke-width:1.0;"/><text fill="#000000" font-family="sans-serif" font-size="13" lengthAdjust="spacing" textLength="8" x="967.462" y="541.4247">1</text><text fill="#000000" font-family="sans-serif" font-size="13" lengthAdjust="spacing" textLength="23" x="950.7104" y="611.5157">1..*</text></g><!--link Explorer to Decision--><g id="link_Explorer_Decision"><path codeLine="125" d="M1547.9565,120.03 C1530.5265,129.45 1513.0265,139.57 1496.9765,150 C1469.1465,168.07 1460.9165,172.11 1438.9765,197 C1394.3665,247.611 1411.4265,283.57 1358.9765,326 C1315.3065,361.324 1261.8265,387.969 1208.8365,407.919 " fill="none" id="Explorer-Decision" style="stroke:#181818;stroke-width:1.0;"/><polygon fill="#000000" points="1440.1648,264.8023,1448.9622,261.189,1445.1582,256.7081,1440.1648,264.8023" style="stroke:#000000;stroke-width:1.0;"/><text fill="#000000" font-family="sans-serif" font-size="13" lengthAdjust="spacing" textLength="43" x="1452.9765" y="266.0669">makes</text><text fill="#000000" font-family="sans-serif" font-size="13" lengthAdjust="spacing" textLength="8" x="1524.4508" y="140.2972">1</text><text fill="#000000" font-family="sans-serif" font-size="13" lengthAdjust="spacing" textLength="8" x="1230.1594" y="396.772">1</text></g><!--reverse link Explorer to Position--><g id="link_Explorer_Position"><path codeLine="126" d="M1506.3217,67.7646 C1141.3817,78.5546 221.3755,128.82 48.9743,365 C6,423.873 14.5613,464.746 48.9743,529 C66.2836,561.319 96.094,586.689 126.8915,605.857 " fill="none" id="Explorer-backto-Position" style="stroke:#181818;stroke-width:1.0;"/><polygon fill="#181818" points="1518.3165,67.41,1512.2009,63.5891,1506.3217,67.7646,1512.4373,71.5856,1518.3165,67.41" style="stroke:#181818;stroke-width:1.0;"/><text fill="#000000" font-family="sans-serif" font-size="13" lengthAdjust="spacing" textLength="8" x="1502.5481" y="64.2904">1</text><text fill="#000000" font-family="sans-serif" font-size="13" lengthAdjust="spacing" textLength="23" x="86.9342" y="595.0458">0..*</text></g><!--reverse link Explorer to Creeks--><g id="link_Explorer_Creeks"><path codeLine="127" d="M1587.5159,128.5196 C1551.3359,164.2296 1522.9765,205.664 1522.9765,260.5 C1522.9765,260.5 1522.9765,260.5 1522.9765,789 C1522.9765,841.348 1465.9865,824.24 1414.9765,836 C1328.7165,855.887 1100.9665,825.043 1016.9745,853 C979.9005,865.34 943.6255,890.254 916.7585,911.938 " fill="none" id="Explorer-backto-Creeks" style="stroke:#181818;stroke-width:1.0;"/><polygon fill="#181818" points="1596.0565,120.09,1588.9763,121.458,1587.5159,128.5196,1594.5961,127.1517,1596.0565,120.09" style="stroke:#181818;stroke-width:1.0;"/><text fill="#000000" font-family="sans-serif" font-size="13" lengthAdjust="spacing" textLength="8" x="1578.7136" y="140.3649">1</text><text fill="#000000" font-family="sans-serif" font-size="13" lengthAdjust="spacing" textLength="23" x="899.3073" y="900.7906">1..*</text></g><!--reverse link Explorer to Site--><g id="link_Explorer_Site"><path codeLine="128" d="M1627.8961,130.7961 C1608.9861,169.0261 1593.9765,210.918 1593.9765,260.5 C1593.9765,260.5 1593.9765,260.5 1593.9765,734 C1593.9765,787.233 1592.7065,814.653 1548.9765,845 C1522.4865,863.376 1289.1965,841.783 1258.9765,853 C1226.2165,865.159 1195.7465,890.076 1173.5765,911.805 " fill="none" id="Explorer-backto-Site" style="stroke:#181818;stroke-width:1.0;"/><polygon fill="#181818" points="1633.2165,120.04,1626.9709,123.6446,1627.8961,130.7961,1634.1417,127.1915,1633.2165,120.04" style="stroke:#181818;stroke-width:1.0;"/><text fill="#000000" font-family="sans-serif" font-size="13" lengthAdjust="spacing" textLength="8" x="1620.6348" y="140.3085">1</text><text fill="#000000" font-family="sans-serif" font-size="13" lengthAdjust="spacing" textLength="8" x="1170.8103" y="900.9342">1</text></g><!--link Explorer to Result--><g id="link_Explorer_Result"><path codeLine="129" d="M1518.4765,91.72 C1461.5165,105.22 1396.6965,124.27 1340.9765,150 C1305.2665,166.49 1268.9865,190.989 1240.1165,212.731 " fill="none" id="Explorer-Result" style="stroke:#181818;stroke-width:1.0;"/><polygon fill="#000000" points="1341.3911,160.5598,1350.8579,159.6489,1348.5145,154.2584,1341.3911,160.5598" style="stroke:#000000;stroke-width:1.0;"/><text fill="#000000" font-family="sans-serif" font-size="13" lengthAdjust="spacing" textLength="30" x="1354.9765" y="163.0669">uses</text><text fill="#000000" font-family="sans-serif" font-size="13" lengthAdjust="spacing" textLength="8" x="1502.246" y="105.7388">1</text><text fill="#000000" font-family="sans-serif" font-size="13" lengthAdjust="spacing" textLength="8" x="1239.7299" y="201.9021">1</text></g><!--link Explorer to ShortestPath--><g id="link_Explorer_ShortestPath"><path codeLine="130" d="M1726.0965,120.38 C1734.7065,129.79 1742.9865,139.82 1749.9765,150 C1849.5565,295.15 1759.1865,388.306 1864.9765,529 C2020.2165,735.463 2308.4465,865.141 2453.9765,920.479 " fill="none" id="Explorer-ShortestPath" style="stroke:#181818;stroke-width:1.0;"/><polygon fill="#000000" points="1909.3412,571.2649,1905.4284,562.5965,1901.0805,566.552,1909.3412,571.2649" style="stroke:#000000;stroke-width:1.0;"/><text fill="#000000" font-family="sans-serif" font-size="13" lengthAdjust="spacing" textLength="30" x="1914.9765" y="572.0669">uses</text><text fill="#000000" font-family="sans-serif" font-size="13" lengthAdjust="spacing" textLength="8" x="1725.058" y="140.2899">1</text><text fill="#000000" font-family="sans-serif" font-size="13" lengthAdjust="spacing" textLength="8" x="2426.7952" y="909.3778">1</text></g><!--link Explorer to Battery--><g id="link_Explorer_Battery"><path codeLine="131" d="M1811.5465,90.15 C1923.1165,113 2063.2565,150.07 2097.9765,197 C2132.0765,243.092 2118.6465,272.524 2097.9765,326 C2083.0265,364.667 2051.5865,399.16 2023.9865,423.927 " fill="none" id="Explorer-Battery" style="stroke:#181818;stroke-width:1.0;"/><polygon fill="#000000" points="2125.6612,265.7845,2123.2839,256.5759,2118.3252,259.7319,2125.6612,265.7845" style="stroke:#000000;stroke-width:1.0;"/><text fill="#000000" font-family="sans-serif" font-size="13" lengthAdjust="spacing" textLength="58" x="2131.9765" y="266.0669">initializes</text><text fill="#000000" font-family="sans-serif" font-size="13" lengthAdjust="spacing" textLength="8" x="1819.3103" y="103.9763">1</text><text fill="#000000" font-family="sans-serif" font-size="13" lengthAdjust="spacing" textLength="8" x="2023.7725" y="413.0764">1</text></g><!--link Explorer to Budget--><g id="link_Explorer_Budget"><path codeLine="132" d="M1811.6265,85.07 C1949.3665,107.13 2142.4965,145.97 2198.9765,197 C2271.2565,262.298 2307.2065,376.952 2321.0165,432.113 " fill="none" id="Explorer-Budget" style="stroke:#181818;stroke-width:1.0;"/><polygon fill="#000000" points="2294.1086,264.3816,2288.2883,256.86,2284.9788,261.7177,2294.1086,264.3816" style="stroke:#000000;stroke-width:1.0;"/><text fill="#000000" font-family="sans-serif" font-size="13" lengthAdjust="spacing" textLength="30" x="2298.9765" y="266.0669">uses</text><text fill="#000000" font-family="sans-serif" font-size="13" lengthAdjust="spacing" textLength="8" x="1819.3944" y="82.861">1</text><text fill="#000000" font-family="sans-serif" font-size="13" lengthAdjust="spacing" textLength="23" x="2294.3822" y="421.311">1..*</text></g><!--link Explorer to Cost--><g id="link_Explorer_Cost"><path codeLine="133" d="M1811.6065,73.27 C1952.2565,86.23 2167.7665,118.23 2337.9765,197 C2462.4165,254.59 2583.3165,364.478 2643.1465,423.558 " fill="none" id="Explorer-Cost" style="stroke:#181818;stroke-width:1.0;"/><polygon fill="#000000" points="2543.5843,263.5075,2536.3896,257.2876,2534.1077,262.7045,2543.5843,263.5075" style="stroke:#000000;stroke-width:1.0;"/><text fill="#000000" font-family="sans-serif" font-size="13" lengthAdjust="spacing" textLength="30" x="2547.9765" y="266.0669">uses</text><text fill="#000000" font-family="sans-serif" font-size="13" lengthAdjust="spacing" textLength="8" x="1819.3734" y="70.4525">1</text><text fill="#000000" font-family="sans-serif" font-size="13" lengthAdjust="spacing" textLength="23" x="2612.1252" y="412.9474">1..*</text></g><!--link Explorer to Direction--><g id="link_Explorer_Direction"><path codeLine="134" d="M1518.1365,85.28 C1374.2965,107.22 1149.5565,145.74 958.9745,197 C742.7325,255.159 691.6745,281.311 483.9745,365 C457.3035,375.746 429.1205,387.918 402.2125,399.948 " fill="none" id="Explorer-Direction" style="stroke:#181818;stroke-width:1.0;"/><polygon fill="#000000" points="959.1622,262.9234,968.6654,263.2972,967.0701,257.64,959.1622,262.9234" style="stroke:#000000;stroke-width:1.0;"/><text fill="#000000" font-family="sans-serif" font-size="13" lengthAdjust="spacing" textLength="30" x="972.9745" y="266.0669">uses</text><text fill="#000000" font-family="sans-serif" font-size="13" lengthAdjust="spacing" textLength="8" x="1502.3588" y="83.0818">1</text><text fill="#000000" font-family="sans-serif" font-size="13" lengthAdjust="spacing" textLength="8" x="408.5667" y="389.115">4</text></g><!--link Explorer to Initialize--><g id="link_Explorer_Initialize"><path codeLine="135" d="M1794.5565,120.14 C1812.5765,129.38 1830.5365,139.42 1846.9765,150 C1868.2665,163.71 1889.8465,180.58 1909.1265,196.983 " fill="none" id="Explorer-Initialize" style="stroke:#181818;stroke-width:1.0;"/><polygon fill="#000000" points="1879.129,161.3515,1873.2541,153.8724,1869.98,158.754,1879.129,161.3515" style="stroke:#000000;stroke-width:1.0;"/><text fill="#000000" font-family="sans-serif" font-size="13" lengthAdjust="spacing" textLength="30" x="1883.9765" y="163.0669">uses</text><text fill="#000000" font-family="sans-serif" font-size="13" lengthAdjust="spacing" textLength="8" x="1802.6464" y="140.4213">1</text><text fill="#000000" font-family="sans-serif" font-size="13" lengthAdjust="spacing" textLength="8" x="1893.2679" y="186.1505">1</text></g><!--link Explorer to SiteResults--><g id="link_Explorer_SiteResults"><path codeLine="136" d="M1664.9765,120.26 C1664.9765,159.48 1664.9765,213.201 1664.9765,260.5 C1664.9765,260.5 1664.9765,260.5 1664.9765,789 C1664.9765,846.326 1615.6065,886.119 1564.3965,911.974 " fill="none" id="Explorer-SiteResults" style="stroke:#181818;stroke-width:1.0;"/><polygon fill="#000000" points="1669.3464,572.5265,1673.4018,563.924,1667.5708,563.1832,1669.3464,572.5265" style="stroke:#000000;stroke-width:1.0;"/><text fill="#000000" font-family="sans-serif" font-size="13" lengthAdjust="spacing" textLength="30" x="1678.9765" y="572.0669">uses</text><text fill="#000000" font-family="sans-serif" font-size="13" lengthAdjust="spacing" textLength="8" x="1656.489" y="140.1552">1</text><text fill="#000000" font-family="sans-serif" font-size="13" lengthAdjust="spacing" textLength="8" x="1575.0312" y="900.8328">1</text></g><!--link Explorer to CreekResults--><g id="link_Explorer_CreekResults"><path codeLine="137" d="M1703.4965,120.07 C1725.9865,157.89 1749.9765,210.058 1749.9765,260.5 C1749.9765,260.5 1749.9765,260.5 1749.9765,789 C1749.9765,828.477 1771.5465,866.507 1794.5465,895.839 " fill="none" id="Explorer-CreekResults" style="stroke:#181818;stroke-width:1.0;"/><polygon fill="#000000" points="1755.5593,572.5323,1757.4239,563.2063,1751.5861,563.8915,1755.5593,572.5323" style="stroke:#000000;stroke-width:1.0;"/><text fill="#000000" font-family="sans-serif" font-size="13" lengthAdjust="spacing" textLength="30" x="1763.9765" y="572.0669">uses</text><text fill="#000000" font-family="sans-serif" font-size="13" lengthAdjust="spacing" textLength="8" x="1699.9194" y="140.3424">1</text><text fill="#000000" font-family="sans-serif" font-size="13" lengthAdjust="spacing" textLength="23" x="1763.5113" y="885.0829">1..*</text></g><!--reverse link CreekResults to GetPOIs--><g id="link_CreekResults_GetPOIs"><path codeLine="138" d="M1768.5326,1016.5626 C1742.9726,1036.6006 1724.1065,1051.383 1700.6365,1069.787 " fill="none" id="CreekResults-backto-GetPOIs" style="stroke:#181818;stroke-width:1.0;"/><polygon fill="#181818" points="1777.9765,1009.159,1770.7867,1009.7128,1768.5326,1016.5626,1775.7224,1016.0088,1777.9765,1009.159" style="stroke:#181818;stroke-width:1.0;"/><text fill="#000000" font-family="sans-serif" font-size="13" lengthAdjust="spacing" textLength="23" x="1744.4062" y="1029.4428">0..*</text><text fill="#000000" font-family="sans-serif" font-size="13" lengthAdjust="spacing" textLength="8" x="1700.3646" y="1058.9133">1</text></g><!--reverse link SiteResults to GetPOIs--><g id="link_SiteResults_GetPOIs"><path codeLine="139" d="M1511.622,1000.4939 C1541.522,1024.0539 1569.9165,1046.423 1599.8065,1069.975 " fill="none" id="SiteResults-backto-GetPOIs" style="stroke:#181818;stroke-width:1.0;"/><polygon fill="#181818" points="1502.1965,993.067,1504.4336,999.9223,1511.622,1000.4939,1509.3849,993.6386,1502.1965,993.067" style="stroke:#181818;stroke-width:1.0;"/><text fill="#000000" font-family="sans-serif" font-size="13" lengthAdjust="spacing" textLength="8" x="1501.2739" y="1012.5354">1</text><text fill="#000000" font-family="sans-serif" font-size="13" lengthAdjust="spacing" textLength="8" x="1582.496" y="1058.8339">1</text></g><!--reverse link Direction to Position--><g id="link_Direction_Position"><path codeLine="140" d="M254.5269,540.9881 C250.3809,566.1281 247.6535,582.672 243.8115,605.969 " fill="none" id="Direction-backto-Position" style="stroke:#181818;stroke-width:1.0;"/><polygon fill="#181818" points="256.4795,529.148,251.5565,534.4172,254.5269,540.9881,259.4499,535.7189,256.4795,529.148" style="stroke:#181818;stroke-width:1.0;"/></g><!--reverse link Decision to Position--><g id="link_Decision_Position"><path codeLine="141" d="M620.0649,508.8383 C549.3419,521.9613 487.8805,536.859 420.9745,559 C385.1935,570.841 347.7985,588.761 316.0685,605.825 " fill="none" id="Decision-backto-Position" style="stroke:#181818;stroke-width:1.0;"/><polygon fill="#181818" points="631.8635,506.649,625.2344,503.8108,620.0649,508.8383,626.694,511.6765,631.8635,506.649" style="stroke:#181818;stroke-width:1.0;"/></g><!--reverse link Initialize to Battery--><g id="link_Initialize_Battery"><path codeLine="142" d="M1975.4672,338.0956 C1974.8272,370.1836 1974.3165,396.104 1973.7565,423.969 " fill="none" id="Initialize-backto-Battery" style="stroke:#181818;stroke-width:1.0;"/><polygon fill="#181818" points="1975.7065,326.098,1971.5876,332.017,1975.4672,338.0956,1979.5861,332.1766,1975.7065,326.098" style="stroke:#181818;stroke-width:1.0;"/></g><!--reverse link Decision to CreekResults--><g id="link_Decision_CreekResults"><path codeLine="143" d="M785.2852,525.1351 C596.8782,592.0871 355.4615,707.624 481.9745,836 C504.6525,859.012 1613.5365,845.564 1644.9765,853 C1682.8665,861.961 1721.9565,878.722 1755.6565,895.91 " fill="none" id="Decision-backto-CreekResults" style="stroke:#181818;stroke-width:1.0;"/><polygon fill="#181818" points="796.5925,521.117,789.5995,519.357,785.2852,525.1351,792.2782,526.8952,796.5925,521.117" style="stroke:#181818;stroke-width:1.0;"/></g><!--reverse link Decision to SiteResults--><g id="link_Decision_SiteResults"><path codeLine="144" d="M1205.6476,525.5502 C1256.6076,546.0752 1296.5865,569.189 1336.9765,606 C1426.2065,687.342 1446.3065,839.631 1450.7565,911.722 " fill="none" id="Decision-backto-SiteResults" style="stroke:#181818;stroke-width:1.0;"/><polygon fill="#181818" points="1194.5165,521.067,1198.5876,527.019,1205.6476,525.5502,1201.5764,519.5983,1194.5165,521.067" style="stroke:#181818;stroke-width:1.0;"/></g><!--SRC=[jLPBJnin4BxdLrXxsW11hTGJgZX0Q9KgAeXmQ2-DpEuaSLdMAzlXKSf_x_XjXqqK3hqGTkRp-9ktguPAIIwUkeOB4EHbGCWX-SLQfXXjs1yevGcPAS7QvV24F71MMu2YTp26Yad6stBe8LP7gxkMFpPGB-4QvBfHSekH6Xhs0E8BQsbp3HqNAZ7rEXXqQ8akWHJ-9baOWfNXx8L6HCYBL5InwfKSBa5DMlngAz3sFCwW3gNYNIznrDLEVivR9NXJ2hPSgJ4J7dL46bZa0jvrN385cT15Bv5jNBIMS56jk8-ECBzZgkW9-JQx_7vv-nig5KE5eI1eL85Oq0g2GpDq69pt6CtxD2N_XxeXOgEFIQkdjAq9k-yQk8TMoHvYhn7VFAED6_wUCxEAjbEa_HxyjNPyxmDO3FjYRzRYNMGqVYyo6DI1FNAby-4h-d3TrGWA6VN56GiwwQLgHTibp3jde4nKs0sPFBONjEjxWfd6MejjfF6NiJAiphIH_mYmgQseNP1hLuPRCTAmkU4HK_l_BD6a33UE1k0Djv0jm-FgSfAEZNC1S2UzjxIkZQ2izD_9-EsSiexOK_g6APFgimMTvYqnOx4T9IZzMUemRhDf07bx1LCh78OWrHLLAszoWHrttd29ueIor7n8Jkk86DKFBvxWw5Y2yFAVR-MQ9kRy2JKuPyBti_qUaluPe1rmCyoG71YYI3LHb4ClnA6d6zHu7ISUoKOUwOs6SJUzY91H5MKa6wuZtoWa6VqsWgaTnykpSldTXrT2x2ieh2xFIQSTJSrjNafuKe9EsWNVOIgSqG7VvuGP5_PovxoP5HsgbHLakpPQqIZ0dJEtBiQxDbOEsj7GMovg47EXnyfERA0p2Ky6dw9Rgd1bFK_X0HhYBUi4XP6J9suKMiVPAcL0w21apNEM62-7YNcjJ2OEIMT2CXJu8uXqB3XxoHJK9FeUBjdzkdzT6-MzSRR6vuzAp8tPOW42zAF41IQSF2AAAzgSSwc2R9jT3Kgiwi-CP0W35hPHRXX2K-7XL7miCEhuStnyKEIxQP1lgiz_4UTNVgykMUzzUh_Aj-dCekXLuehka_jrl4rd3Gx2mnPz7Or6skDnd0-5VZD9Sbfak0F4VJ0XyGjvKpqofWp43ev-G65NmWO9BG-3gy0qlI7WpgOxO2lIG7tn8Yg-tFl1XhGhpbr6hNDSxYBvgOWxUQShoMpOxNBS6pjmCUvliTcgi5ayiBRTh1waIyibEz76vn0gOlv3pMJIn2qjTrd8mIcXN9CG-GS0]--></g></svg>