<?xml version="1.0" encoding="us-ascii" standalone="no"?><svg xmlns="http://www.w3.org/2000/svg" xmlns:xlink="http://www.w3.org/1999/xlink" contentStyleType="text/css" height="1113px" preserveAspectRatio="none" style="width:1652px;height:1113px;background:#FFFFFF;" version="1.1" viewBox="0 0 1652 1113" width="1652px" zoomAndPan="magnify"><defs/><g><!--cluster POIs--><g id="cluster_POIs"><path d="M9.5,675 L44.5,675 A5.25,5.25 0 0 1 48,678.5 L55,697.2969 L1559.5,697.2969 A3.5,3.5 0 0 1 1563,700.7969 L1563,1102.5 A3.5,3.5 0 0 1 1559.5,1106 L9.5,1106 A3.5,3.5 0 0 1 6,1102.5 L6,678.5 A3.5,3.5 0 0 1 9.5,675 " fill="none" style="stroke:#696969;stroke-width:1.0;"/><line style="stroke:#696969;stroke-width:1.0;" x1="6" x2="55" y1="697.2969" y2="697.2969"/><text fill="#000000" font-family="sans-serif" font-size="14" font-weight="bold" lengthAdjust="spacing" textLength="36" x="10" y="689.9951">POIs</text></g><!--class Creeks--><g id="elem_Creeks"><rect codeLine="25" fill="#F1F1F1" height="113.1875" id="Creeks" rx="3.5" ry="3.5" style="stroke:#181818;stroke-width:0.5;" width="504" x="22" y="710"/><ellipse cx="244.75" cy="726" fill="#ADD1B2" rx="11" ry="11" style="stroke:#181818;stroke-width:1.0;"/><path d="M247.0938,721.6719 C246.1563,721.2344 245.5625,721.0938 244.6875,721.0938 C242.0625,721.0938 240.0625,723.1719 240.0625,725.8906 L240.0625,727.0156 C240.0625,729.5938 242.1719,731.4844 245.0625,731.4844 C246.2813,731.4844 247.4375,731.1875 248.1875,730.6406 C248.7656,730.2344 249.0938,729.7813 249.0938,729.3906 C249.0938,728.9375 248.7031,728.5469 248.2344,728.5469 C248.0156,728.5469 247.8125,728.625 247.625,728.8125 C247.1719,729.2969 247.1719,729.2969 246.9844,729.3906 C246.5625,729.6563 245.875,729.7813 245.1094,729.7813 C243.0625,729.7813 241.7656,728.6875 241.7656,726.9844 L241.7656,725.8906 C241.7656,724.1094 243.0156,722.7969 244.75,722.7969 C245.3281,722.7969 245.9375,722.9531 246.4063,723.2031 C246.8906,723.4844 247.0625,723.7031 247.1563,724.1094 C247.2188,724.5156 247.25,724.6406 247.3906,724.7656 C247.5313,724.9063 247.7656,725.0156 247.9844,725.0156 C248.25,725.0156 248.5156,724.875 248.6875,724.6563 C248.7969,724.5 248.8281,724.3125 248.8281,723.8906 L248.8281,722.4688 C248.8281,722.0313 248.8125,721.9063 248.7188,721.75 C248.5625,721.4844 248.2813,721.3438 247.9844,721.3438 C247.6875,721.3438 247.4844,721.4375 247.2656,721.75 L247.0938,721.6719 Z " fill="#000000"/><text fill="#000000" font-family="sans-serif" font-size="14" lengthAdjust="spacing" textLength="50" x="265.25" y="730.8467">Creeks</text><line style="stroke:#181818;stroke-width:0.5;" x1="23" x2="525" y1="742" y2="742"/><rect fill="none" height="6" style="stroke:#C82930;stroke-width:1.0;" width="6" x="30" y="752.6484"/><text fill="#000000" font-family="sans-serif" font-size="14" lengthAdjust="spacing" textLength="164" x="42" y="758.9951">creekIDs: List&lt;String&gt;</text><line style="stroke:#181818;stroke-width:0.5;" x1="23" x2="525" y1="766.2969" y2="766.2969"/><ellipse cx="33" cy="779.9453" fill="#84BE84" rx="3" ry="3" style="stroke:#038048;stroke-width:1.0;"/><text fill="#000000" font-family="sans-serif" font-size="14" lengthAdjust="spacing" textLength="227" x="42" y="783.292">addCreek(creekID: String): void</text><ellipse cx="33" cy="796.2422" fill="#84BE84" rx="3" ry="3" style="stroke:#038048;stroke-width:1.0;"/><text fill="#000000" font-family="sans-serif" font-size="14" lengthAdjust="spacing" textLength="186" x="42" y="799.5889">getCreeks(): List&lt;String&gt;</text><ellipse cx="33" cy="812.5391" fill="#84BE84" rx="3" ry="3" style="stroke:#038048;stroke-width:1.0;"/><text fill="#000000" font-family="sans-serif" font-size="14" lengthAdjust="spacing" textLength="478" x="42" y="815.8857">printCreeks(creekX: List&lt;Integer&gt;, creekY: List&lt;Integer&gt;): String</text></g><!--class Site--><g id="elem_Site"><rect codeLine="32" fill="#F1F1F1" height="96.8906" id="Site" rx="3.5" ry="3.5" style="stroke:#181818;stroke-width:0.5;" width="207" x="561.5" y="718"/><ellipse cx="646.25" cy="734" fill="#ADD1B2" rx="11" ry="11" style="stroke:#181818;stroke-width:1.0;"/><path d="M648.5938,729.6719 C647.6563,729.2344 647.0625,729.0938 646.1875,729.0938 C643.5625,729.0938 641.5625,731.1719 641.5625,733.8906 L641.5625,735.0156 C641.5625,737.5938 643.6719,739.4844 646.5625,739.4844 C647.7813,739.4844 648.9375,739.1875 649.6875,738.6406 C650.2656,738.2344 650.5938,737.7813 650.5938,737.3906 C650.5938,736.9375 650.2031,736.5469 649.7344,736.5469 C649.5156,736.5469 649.3125,736.625 649.125,736.8125 C648.6719,737.2969 648.6719,737.2969 648.4844,737.3906 C648.0625,737.6563 647.375,737.7813 646.6094,737.7813 C644.5625,737.7813 643.2656,736.6875 643.2656,734.9844 L643.2656,733.8906 C643.2656,732.1094 644.5156,730.7969 646.25,730.7969 C646.8281,730.7969 647.4375,730.9531 647.9063,731.2031 C648.3906,731.4844 648.5625,731.7031 648.6563,732.1094 C648.7188,732.5156 648.75,732.6406 648.8906,732.7656 C649.0313,732.9063 649.2656,733.0156 649.4844,733.0156 C649.75,733.0156 650.0156,732.875 650.1875,732.6563 C650.2969,732.5 650.3281,732.3125 650.3281,731.8906 L650.3281,730.4688 C650.3281,730.0313 650.3125,729.9063 650.2188,729.75 C650.0625,729.4844 649.7813,729.3438 649.4844,729.3438 C649.1875,729.3438 648.9844,729.4375 648.7656,729.75 L648.5938,729.6719 Z " fill="#000000"/><text fill="#000000" font-family="sans-serif" font-size="14" lengthAdjust="spacing" textLength="29" x="666.75" y="738.8467">Site</text><line style="stroke:#181818;stroke-width:0.5;" x1="562.5" x2="767.5" y1="750" y2="750"/><rect fill="none" height="6" style="stroke:#C82930;stroke-width:1.0;" width="6" x="569.5" y="760.6484"/><text fill="#000000" font-family="sans-serif" font-size="14" lengthAdjust="spacing" textLength="95" x="581.5" y="766.9951">siteID: String</text><line style="stroke:#181818;stroke-width:0.5;" x1="562.5" x2="767.5" y1="774.2969" y2="774.2969"/><ellipse cx="572.5" cy="787.9453" fill="#84BE84" rx="3" ry="3" style="stroke:#038048;stroke-width:1.0;"/><text fill="#000000" font-family="sans-serif" font-size="14" lengthAdjust="spacing" textLength="117" x="581.5" y="791.292">getSite(): String</text><ellipse cx="572.5" cy="804.2422" fill="#84BE84" rx="3" ry="3" style="stroke:#038048;stroke-width:1.0;"/><text fill="#000000" font-family="sans-serif" font-size="14" lengthAdjust="spacing" textLength="181" x="581.5" y="807.5889">setSite(site: String): void</text></g><!--class CreekResults--><g id="elem_CreekResults"><rect codeLine="38" fill="#F1F1F1" height="96.8906" id="CreekResults" rx="3.5" ry="3.5" style="stroke:#181818;stroke-width:0.5;" width="364" x="804" y="718"/><ellipse cx="934.25" cy="734" fill="#ADD1B2" rx="11" ry="11" style="stroke:#181818;stroke-width:1.0;"/><path d="M936.5938,729.6719 C935.6563,729.2344 935.0625,729.0938 934.1875,729.0938 C931.5625,729.0938 929.5625,731.1719 929.5625,733.8906 L929.5625,735.0156 C929.5625,737.5938 931.6719,739.4844 934.5625,739.4844 C935.7813,739.4844 936.9375,739.1875 937.6875,738.6406 C938.2656,738.2344 938.5938,737.7813 938.5938,737.3906 C938.5938,736.9375 938.2031,736.5469 937.7344,736.5469 C937.5156,736.5469 937.3125,736.625 937.125,736.8125 C936.6719,737.2969 936.6719,737.2969 936.4844,737.3906 C936.0625,737.6563 935.375,737.7813 934.6094,737.7813 C932.5625,737.7813 931.2656,736.6875 931.2656,734.9844 L931.2656,733.8906 C931.2656,732.1094 932.5156,730.7969 934.25,730.7969 C934.8281,730.7969 935.4375,730.9531 935.9063,731.2031 C936.3906,731.4844 936.5625,731.7031 936.6563,732.1094 C936.7188,732.5156 936.75,732.6406 936.8906,732.7656 C937.0313,732.9063 937.2656,733.0156 937.4844,733.0156 C937.75,733.0156 938.0156,732.875 938.1875,732.6563 C938.2969,732.5 938.3281,732.3125 938.3281,731.8906 L938.3281,730.4688 C938.3281,730.0313 938.3125,729.9063 938.2188,729.75 C938.0625,729.4844 937.7813,729.3438 937.4844,729.3438 C937.1875,729.3438 936.9844,729.4375 936.7656,729.75 L936.5938,729.6719 Z " fill="#000000"/><text fill="#000000" font-family="sans-serif" font-size="14" lengthAdjust="spacing" textLength="95" x="954.75" y="738.8467">CreekResults</text><line style="stroke:#181818;stroke-width:0.5;" x1="805" x2="1167" y1="750" y2="750"/><rect fill="none" height="6" style="stroke:#C82930;stroke-width:1.0;" width="6" x="812" y="760.6484"/><text fill="#000000" font-family="sans-serif" font-size="14" lengthAdjust="spacing" textLength="139" x="824" y="766.9951">creekResult: String</text><rect fill="none" height="6" style="stroke:#C82930;stroke-width:1.0;" width="6" x="812" y="776.9453"/><text fill="#000000" font-family="sans-serif" font-size="14" lengthAdjust="spacing" textLength="129" x="824" y="783.292">decision: Decision</text><line style="stroke:#181818;stroke-width:0.5;" x1="805" x2="1167" y1="790.5938" y2="790.5938"/><ellipse cx="815" cy="804.2422" fill="#84BE84" rx="3" ry="3" style="stroke:#038048;stroke-width:1.0;"/><text fill="#000000" font-family="sans-serif" font-size="14" lengthAdjust="spacing" textLength="338" x="824" y="807.5889">useScanCreeks(resultData: JSONObject): String</text></g><!--class SiteResults--><g id="elem_SiteResults"><rect codeLine="44" fill="#F1F1F1" height="96.8906" id="SiteResults" rx="3.5" ry="3.5" style="stroke:#181818;stroke-width:0.5;" width="343" x="1203.5" y="718"/><ellipse cx="1330.25" cy="734" fill="#ADD1B2" rx="11" ry="11" style="stroke:#181818;stroke-width:1.0;"/><path d="M1332.5938,729.6719 C1331.6563,729.2344 1331.0625,729.0938 1330.1875,729.0938 C1327.5625,729.0938 1325.5625,731.1719 1325.5625,733.8906 L1325.5625,735.0156 C1325.5625,737.5938 1327.6719,739.4844 1330.5625,739.4844 C1331.7813,739.4844 1332.9375,739.1875 1333.6875,738.6406 C1334.2656,738.2344 1334.5938,737.7813 1334.5938,737.3906 C1334.5938,736.9375 1334.2031,736.5469 1333.7344,736.5469 C1333.5156,736.5469 1333.3125,736.625 1333.125,736.8125 C1332.6719,737.2969 1332.6719,737.2969 1332.4844,737.3906 C1332.0625,737.6563 1331.375,737.7813 1330.6094,737.7813 C1328.5625,737.7813 1327.2656,736.6875 1327.2656,734.9844 L1327.2656,733.8906 C1327.2656,732.1094 1328.5156,730.7969 1330.25,730.7969 C1330.8281,730.7969 1331.4375,730.9531 1331.9063,731.2031 C1332.3906,731.4844 1332.5625,731.7031 1332.6563,732.1094 C1332.7188,732.5156 1332.75,732.6406 1332.8906,732.7656 C1333.0313,732.9063 1333.2656,733.0156 1333.4844,733.0156 C1333.75,733.0156 1334.0156,732.875 1334.1875,732.6563 C1334.2969,732.5 1334.3281,732.3125 1334.3281,731.8906 L1334.3281,730.4688 C1334.3281,730.0313 1334.3125,729.9063 1334.2188,729.75 C1334.0625,729.4844 1333.7813,729.3438 1333.4844,729.3438 C1333.1875,729.3438 1332.9844,729.4375 1332.7656,729.75 L1332.5938,729.6719 Z " fill="#000000"/><text fill="#000000" font-family="sans-serif" font-size="14" lengthAdjust="spacing" textLength="81" x="1350.75" y="738.8467">SiteResults</text><line style="stroke:#181818;stroke-width:0.5;" x1="1204.5" x2="1545.5" y1="750" y2="750"/><rect fill="none" height="6" style="stroke:#C82930;stroke-width:1.0;" width="6" x="1211.5" y="760.6484"/><text fill="#000000" font-family="sans-serif" font-size="14" lengthAdjust="spacing" textLength="125" x="1223.5" y="766.9951">siteResult: String</text><rect fill="none" height="6" style="stroke:#C82930;stroke-width:1.0;" width="6" x="1211.5" y="776.9453"/><text fill="#000000" font-family="sans-serif" font-size="14" lengthAdjust="spacing" textLength="129" x="1223.5" y="783.292">decision: Decision</text><line style="stroke:#181818;stroke-width:0.5;" x1="1204.5" x2="1545.5" y1="790.5938" y2="790.5938"/><ellipse cx="1214.5" cy="804.2422" fill="#84BE84" rx="3" ry="3" style="stroke:#038048;stroke-width:1.0;"/><text fill="#000000" font-family="sans-serif" font-size="14" lengthAdjust="spacing" textLength="317" x="1223.5" y="807.5889">useScanSite(resultData: JSONObject): String</text></g><!--class ShortestPath--><g id="elem_ShortestPath"><rect codeLine="50" fill="#F1F1F1" height="64.2969" id="ShortestPath" rx="3.5" ry="3.5" style="stroke:#181818;stroke-width:0.5;" width="921" x="204.5" y="1026"/><ellipse cx="612.75" cy="1042" fill="#ADD1B2" rx="11" ry="11" style="stroke:#181818;stroke-width:1.0;"/><path d="M615.0938,1037.6719 C614.1563,1037.2344 613.5625,1037.0938 612.6875,1037.0938 C610.0625,1037.0938 608.0625,1039.1719 608.0625,1041.8906 L608.0625,1043.0156 C608.0625,1045.5938 610.1719,1047.4844 613.0625,1047.4844 C614.2813,1047.4844 615.4375,1047.1875 616.1875,1046.6406 C616.7656,1046.2344 617.0938,1045.7813 617.0938,1045.3906 C617.0938,1044.9375 616.7031,1044.5469 616.2344,1044.5469 C616.0156,1044.5469 615.8125,1044.625 615.625,1044.8125 C615.1719,1045.2969 615.1719,1045.2969 614.9844,1045.3906 C614.5625,1045.6563 613.875,1045.7813 613.1094,1045.7813 C611.0625,1045.7813 609.7656,1044.6875 609.7656,1042.9844 L609.7656,1041.8906 C609.7656,1040.1094 611.0156,1038.7969 612.75,1038.7969 C613.3281,1038.7969 613.9375,1038.9531 614.4063,1039.2031 C614.8906,1039.4844 615.0625,1039.7031 615.1563,1040.1094 C615.2188,1040.5156 615.25,1040.6406 615.3906,1040.7656 C615.5313,1040.9063 615.7656,1041.0156 615.9844,1041.0156 C616.25,1041.0156 616.5156,1040.875 616.6875,1040.6563 C616.7969,1040.5 616.8281,1040.3125 616.8281,1039.8906 L616.8281,1038.4688 C616.8281,1038.0313 616.8125,1037.9063 616.7188,1037.75 C616.5625,1037.4844 616.2813,1037.3438 615.9844,1037.3438 C615.6875,1037.3438 615.4844,1037.4375 615.2656,1037.75 L615.0938,1037.6719 Z " fill="#000000"/><text fill="#000000" font-family="sans-serif" font-size="14" lengthAdjust="spacing" textLength="96" x="633.25" y="1046.8467">ShortestPath</text><line style="stroke:#181818;stroke-width:0.5;" x1="205.5" x2="1124.5" y1="1058" y2="1058"/><line style="stroke:#181818;stroke-width:0.5;" x1="205.5" x2="1124.5" y1="1066" y2="1066"/><ellipse cx="215.5" cy="1079.6484" fill="#84BE84" rx="3" ry="3" style="stroke:#038048;stroke-width:1.0;"/><text fill="#000000" font-family="sans-serif" font-size="14" lengthAdjust="spacing" textLength="895" x="224.5" y="1082.9951">findClosestCreek(creeksList: List&lt;String&gt;, creekX: List&lt;Integer&gt;, creekY: List&lt;Integer&gt;, siteposx: int, siteposy: int): String</text></g><!--class GetPOIs--><g id="elem_GetPOIs"><rect codeLine="54" fill="#F1F1F1" height="80.5938" id="GetPOIs" rx="3.5" ry="3.5" style="stroke:#181818;stroke-width:0.5;" width="334" x="1110" y="884"/><ellipse cx="1243.75" cy="900" fill="#ADD1B2" rx="11" ry="11" style="stroke:#181818;stroke-width:1.0;"/><path d="M1246.0938,895.6719 C1245.1563,895.2344 1244.5625,895.0938 1243.6875,895.0938 C1241.0625,895.0938 1239.0625,897.1719 1239.0625,899.8906 L1239.0625,901.0156 C1239.0625,903.5938 1241.1719,905.4844 1244.0625,905.4844 C1245.2813,905.4844 1246.4375,905.1875 1247.1875,904.6406 C1247.7656,904.2344 1248.0938,903.7813 1248.0938,903.3906 C1248.0938,902.9375 1247.7031,902.5469 1247.2344,902.5469 C1247.0156,902.5469 1246.8125,902.625 1246.625,902.8125 C1246.1719,903.2969 1246.1719,903.2969 1245.9844,903.3906 C1245.5625,903.6563 1244.875,903.7813 1244.1094,903.7813 C1242.0625,903.7813 1240.7656,902.6875 1240.7656,900.9844 L1240.7656,899.8906 C1240.7656,898.1094 1242.0156,896.7969 1243.75,896.7969 C1244.3281,896.7969 1244.9375,896.9531 1245.4063,897.2031 C1245.8906,897.4844 1246.0625,897.7031 1246.1563,898.1094 C1246.2188,898.5156 1246.25,898.6406 1246.3906,898.7656 C1246.5313,898.9063 1246.7656,899.0156 1246.9844,899.0156 C1247.25,899.0156 1247.5156,898.875 1247.6875,898.6563 C1247.7969,898.5 1247.8281,898.3125 1247.8281,897.8906 L1247.8281,896.4688 C1247.8281,896.0313 1247.8125,895.9063 1247.7188,895.75 C1247.5625,895.4844 1247.2813,895.3438 1246.9844,895.3438 C1246.6875,895.3438 1246.4844,895.4375 1246.2656,895.75 L1246.0938,895.6719 Z " fill="#000000"/><text fill="#000000" font-family="sans-serif" font-size="14" lengthAdjust="spacing" textLength="58" x="1264.25" y="904.8467">GetPOIs</text><line style="stroke:#181818;stroke-width:0.5;" x1="1111" x2="1443" y1="916" y2="916"/><line style="stroke:#181818;stroke-width:0.5;" x1="1111" x2="1443" y1="924" y2="924"/><ellipse cx="1121" cy="937.6484" fill="#84BE84" rx="3" ry="3" style="stroke:#038048;stroke-width:1.0;"/><text fill="#000000" font-family="sans-serif" font-size="14" lengthAdjust="spacing" textLength="308" x="1130" y="940.9951">scan_creeks(extraInfo: JSONObject): String</text><ellipse cx="1121" cy="953.9453" fill="#84BE84" rx="3" ry="3" style="stroke:#038048;stroke-width:1.0;"/><text fill="#000000" font-family="sans-serif" font-size="14" lengthAdjust="spacing" textLength="287" x="1130" y="957.292">scan_site(extraInfo: JSONObject): String</text></g><!--class Explorer--><g id="elem_Explorer"><rect codeLine="3" fill="#F1F1F1" height="341.3438" id="Explorer" rx="3.5" ry="3.5" style="stroke:#181818;stroke-width:0.5;" width="293" x="839.5" y="7"/><ellipse cx="951.25" cy="23" fill="#ADD1B2" rx="11" ry="11" style="stroke:#181818;stroke-width:1.0;"/><path d="M953.5938,18.6719 C952.6563,18.2344 952.0625,18.0938 951.1875,18.0938 C948.5625,18.0938 946.5625,20.1719 946.5625,22.8906 L946.5625,24.0156 C946.5625,26.5938 948.6719,28.4844 951.5625,28.4844 C952.7813,28.4844 953.9375,28.1875 954.6875,27.6406 C955.2656,27.2344 955.5938,26.7813 955.5938,26.3906 C955.5938,25.9375 955.2031,25.5469 954.7344,25.5469 C954.5156,25.5469 954.3125,25.625 954.125,25.8125 C953.6719,26.2969 953.6719,26.2969 953.4844,26.3906 C953.0625,26.6563 952.375,26.7813 951.6094,26.7813 C949.5625,26.7813 948.2656,25.6875 948.2656,23.9844 L948.2656,22.8906 C948.2656,21.1094 949.5156,19.7969 951.25,19.7969 C951.8281,19.7969 952.4375,19.9531 952.9063,20.2031 C953.3906,20.4844 953.5625,20.7031 953.6563,21.1094 C953.7188,21.5156 953.75,21.6406 953.8906,21.7656 C954.0313,21.9063 954.2656,22.0156 954.4844,22.0156 C954.75,22.0156 955.0156,21.875 955.1875,21.6563 C955.2969,21.5 955.3281,21.3125 955.3281,20.8906 L955.3281,19.4688 C955.3281,19.0313 955.3125,18.9063 955.2188,18.75 C955.0625,18.4844 954.7813,18.3438 954.4844,18.3438 C954.1875,18.3438 953.9844,18.4375 953.7656,18.75 L953.5938,18.6719 Z " fill="#000000"/><text fill="#000000" font-family="sans-serif" font-size="14" lengthAdjust="spacing" textLength="61" x="971.75" y="27.8467">Explorer</text><line style="stroke:#181818;stroke-width:0.5;" x1="840.5" x2="1131.5" y1="39" y2="39"/><rect fill="none" height="6" style="stroke:#C82930;stroke-width:1.0;" width="6" x="847.5" y="49.6484"/><text fill="#000000" font-family="sans-serif" font-size="14" lengthAdjust="spacing" textLength="105" x="859.5" y="55.9951">logger: Logger</text><rect fill="none" height="6" style="stroke:#C82930;stroke-width:1.0;" width="6" x="847.5" y="65.9453"/><text fill="#000000" font-family="sans-serif" font-size="14" lengthAdjust="spacing" textLength="107" x="859.5" y="72.292">creeks: Creeks</text><rect fill="none" height="6" style="stroke:#C82930;stroke-width:1.0;" width="6" x="847.5" y="82.2422"/><text fill="#000000" font-family="sans-serif" font-size="14" lengthAdjust="spacing" textLength="65" x="859.5" y="88.5889">site: Site</text><rect fill="none" height="6" style="stroke:#C82930;stroke-width:1.0;" width="6" x="847.5" y="98.5391"/><text fill="#000000" font-family="sans-serif" font-size="14" lengthAdjust="spacing" textLength="190" x="859.5" y="104.8857">creekResult: CreekResults</text><rect fill="none" height="6" style="stroke:#C82930;stroke-width:1.0;" width="6" x="847.5" y="114.8359"/><text fill="#000000" font-family="sans-serif" font-size="14" lengthAdjust="spacing" textLength="162" x="859.5" y="121.1826">siteResult: SiteResults</text><rect fill="none" height="6" style="stroke:#C82930;stroke-width:1.0;" width="6" x="847.5" y="131.1328"/><text fill="#000000" font-family="sans-serif" font-size="14" lengthAdjust="spacing" textLength="129" x="859.5" y="137.4795">decision: Decision</text><rect fill="none" height="6" style="stroke:#C82930;stroke-width:1.0;" width="6" x="847.5" y="147.4297"/><text fill="#000000" font-family="sans-serif" font-size="14" lengthAdjust="spacing" textLength="126" x="859.5" y="153.7764">position: Position</text><rect fill="none" height="6" style="stroke:#C82930;stroke-width:1.0;" width="6" x="847.5" y="163.7266"/><text fill="#000000" font-family="sans-serif" font-size="14" lengthAdjust="spacing" textLength="155" x="859.5" y="170.0732">batteryLevel: Integer</text><rect fill="none" height="6" style="stroke:#C82930;stroke-width:1.0;" width="6" x="847.5" y="180.0234"/><text fill="#000000" font-family="sans-serif" font-size="14" lengthAdjust="spacing" textLength="186" x="859.5" y="186.3701">remainingBudget: Integer</text><rect fill="none" height="6" style="stroke:#C82930;stroke-width:1.0;" width="6" x="847.5" y="196.3203"/><text fill="#000000" font-family="sans-serif" font-size="14" lengthAdjust="spacing" textLength="149" x="859.5" y="202.667">init_direction: String</text><rect fill="none" height="6" style="stroke:#C82930;stroke-width:1.0;" width="6" x="847.5" y="212.6172"/><text fill="#000000" font-family="sans-serif" font-size="14" lengthAdjust="spacing" textLength="109" x="859.5" y="218.9639">rightDir: String</text><rect fill="none" height="6" style="stroke:#C82930;stroke-width:1.0;" width="6" x="847.5" y="228.9141"/><text fill="#000000" font-family="sans-serif" font-size="14" lengthAdjust="spacing" textLength="100" x="859.5" y="235.2607">leftDir: String</text><rect fill="none" height="6" style="stroke:#C82930;stroke-width:1.0;" width="6" x="847.5" y="245.2109"/><text fill="#000000" font-family="sans-serif" font-size="14" lengthAdjust="spacing" textLength="139" x="859.5" y="251.5576">oppositeDir: String</text><rect fill="none" height="6" style="stroke:#C82930;stroke-width:1.0;" width="6" x="847.5" y="261.5078"/><text fill="#000000" font-family="sans-serif" font-size="14" lengthAdjust="spacing" textLength="114" x="859.5" y="267.8545">initialDir: String</text><line style="stroke:#181818;stroke-width:0.5;" x1="840.5" x2="1131.5" y1="275.1563" y2="275.1563"/><ellipse cx="850.5" cy="288.8047" fill="#84BE84" rx="3" ry="3" style="stroke:#038048;stroke-width:1.0;"/><text fill="#000000" font-family="sans-serif" font-size="14" lengthAdjust="spacing" textLength="182" x="859.5" y="292.1514">^initialize(s: String): void</text><ellipse cx="850.5" cy="305.1016" fill="#84BE84" rx="3" ry="3" style="stroke:#038048;stroke-width:1.0;"/><text fill="#000000" font-family="sans-serif" font-size="14" lengthAdjust="spacing" textLength="169" x="859.5" y="308.4482">^takeDecision(): String</text><ellipse cx="850.5" cy="321.3984" fill="#84BE84" rx="3" ry="3" style="stroke:#038048;stroke-width:1.0;"/><text fill="#000000" font-family="sans-serif" font-size="14" lengthAdjust="spacing" textLength="267" x="859.5" y="324.7451">^acknowledgeResults(s: String): void</text><ellipse cx="850.5" cy="337.6953" fill="#84BE84" rx="3" ry="3" style="stroke:#038048;stroke-width:1.0;"/><text fill="#000000" font-family="sans-serif" font-size="14" lengthAdjust="spacing" textLength="208" x="859.5" y="341.042">^deliverFinalReport(): String</text></g><!--reverse link Explorer to Creeks--><g id="link_Explorer_Creeks"><path codeLine="61" d="M827.488,212.3871 C663.961,251.3611 434,321.05 434,409 C434,409 434,409 434,628 C434,661.696 413.336,688.931 386.86,709.997 " fill="none" id="Explorer-backto-Creeks" style="stroke:#454645;stroke-width:1.0;"/><polygon fill="#454645" points="839.161,209.605,832.3971,207.105,827.488,212.3871,834.2518,214.8871,839.161,209.605" style="stroke:#454645;stroke-width:1.0;"/><text fill="#000000" font-family="sans-serif" font-size="13" lengthAdjust="spacing" textLength="8" x="823.3834" y="207.9352">1</text><text fill="#000000" font-family="sans-serif" font-size="13" lengthAdjust="spacing" textLength="23" x="376.8468" y="698.86">1..*</text></g><!--reverse link Explorer to Site--><g id="link_Explorer_Site"><path codeLine="62" d="M831.7479,300.2745 C803.3919,334.0855 790,364.876 790,409 C790,409 790,409 790,628 C790,663.971 766.287,694.692 739.518,717.913 " fill="none" id="Explorer-backto-Site" style="stroke:#454645;stroke-width:1.0;"/><polygon fill="#454645" points="839.459,291.08,832.5386,293.1069,831.7479,300.2745,838.6683,298.2476,839.459,291.08" style="stroke:#454645;stroke-width:1.0;"/><text fill="#000000" font-family="sans-serif" font-size="13" lengthAdjust="spacing" textLength="8" x="823.6967" y="293.6112">1</text><text fill="#000000" font-family="sans-serif" font-size="13" lengthAdjust="spacing" textLength="8" x="741.8753" y="706.7599">1</text></g><!--reverse link Explorer to SiteResults--><g id="link_Explorer_SiteResults"><path codeLine="64" d="M1142.1787,266.2996 C1190.6687,304.1566 1223,347.299 1223,409 C1223,409 1223,409 1223,628 C1223,665.541 1248.81,695.492 1279.17,717.734 " fill="none" id="Explorer-backto-SiteResults" style="stroke:#454645;stroke-width:1.0;"/><polygon fill="#454645" points="1132.72,258.915,1134.9878,265.7602,1142.1787,266.2996,1139.9109,259.4544,1132.72,258.915" style="stroke:#454645;stroke-width:1.0;"/><polygon fill="#000000" points="1229.4519,515.351,1229.6377,505.8422,1224.0131,507.549,1229.4519,515.351" style="stroke:#000000;stroke-width:1.0;"/><text fill="#000000" font-family="sans-serif" font-size="13" lengthAdjust="spacing" textLength="30" x="1237" y="515.0669">uses</text><text fill="#000000" font-family="sans-serif" font-size="13" lengthAdjust="spacing" textLength="8" x="1140.4915" y="259.7877">1</text><text fill="#000000" font-family="sans-serif" font-size="13" lengthAdjust="spacing" textLength="8" x="1257.1314" y="706.9055">1</text></g><!--reverse link Explorer to CreekResults--><g id="link_Explorer_CreekResults"><path codeLine="65" d="M986,360.125 C986,380.635 986,389.291 986,409 C986,409 986,409 986,628 C986,657.839 986,691.321 986,717.774 " fill="none" id="Explorer-backto-CreekResults" style="stroke:#454645;stroke-width:1.0;"/><polygon fill="#454645" points="986,348.125,982,354.125,986,360.125,990,354.125,986,348.125" style="stroke:#454645;stroke-width:1.0;"/><polygon fill="#000000" points="991,515.5664,993.9389,506.5213,988.0611,506.5213,991,515.5664" style="stroke:#000000;stroke-width:1.0;"/><text fill="#000000" font-family="sans-serif" font-size="13" lengthAdjust="spacing" textLength="30" x="1000" y="515.0669">uses</text><text fill="#000000" font-family="sans-serif" font-size="13" lengthAdjust="spacing" textLength="8" x="977.8188" y="368.2584">1</text><text fill="#000000" font-family="sans-serif" font-size="13" lengthAdjust="spacing" textLength="23" x="961.3828" y="706.9511">1..*</text></g><!--reverse link CreekResults to GetPOIs--><g id="link_CreekResults_GetPOIs"><path codeLine="67" d="M1085.4661,820.8228 C1126.4161,842.7758 1163.88,862.858 1202.84,883.747 " fill="none" id="CreekResults-backto-GetPOIs" style="stroke:#454645;stroke-width:1.0;"/><polygon fill="#454645" points="1074.89,815.153,1078.2881,821.5132,1085.4661,820.8228,1082.068,814.4625,1074.89,815.153" style="stroke:#454645;stroke-width:1.0;"/><text fill="#000000" font-family="sans-serif" font-size="13" lengthAdjust="spacing" textLength="23" x="1062.2893" y="834.7817">1..*</text><text fill="#000000" font-family="sans-serif" font-size="13" lengthAdjust="spacing" textLength="8" x="1181.8948" y="872.8666">1</text></g><!--reverse link SiteResults to GetPOIs--><g id="link_SiteResults_GetPOIs"><path codeLine="68" d="M1338.6769,825.3145 C1324.8869,847.2675 1315.1,862.858 1301.97,883.747 " fill="none" id="SiteResults-backto-GetPOIs" style="stroke:#454645;stroke-width:1.0;"/><polygon fill="#454645" points="1345.06,815.153,1338.4813,818.1061,1338.6769,825.3145,1345.2556,822.3614,1345.06,815.153" style="stroke:#454645;stroke-width:1.0;"/><text fill="#000000" font-family="sans-serif" font-size="13" lengthAdjust="spacing" textLength="8" x="1332.4993" y="834.7817">1</text><text fill="#000000" font-family="sans-serif" font-size="13" lengthAdjust="spacing" textLength="8" x="1297.4432" y="872.8666">1</text></g><!--reverse link Creeks to ShortestPath--><g id="link_Creeks_ShortestPath"><path codeLine="69" d="M359.0332,830.4596 C440.4752,890.7596 557.679,977.538 622.994,1025.8982 " fill="none" id="Creeks-backto-ShortestPath" style="stroke:#454645;stroke-width:1.0;"/><polygon fill="#454645" points="349.389,823.319,351.8309,830.1041,359.0332,830.4596,356.5913,823.6746,349.389,823.319" style="stroke:#454645;stroke-width:1.0;"/></g><!--reverse link Site to ShortestPath--><g id="link_Site_ShortestPath"><path codeLine="70" d="M665,827.305 C665,886.887 665,975.026 665,1025.6615 " fill="none" id="Site-backto-ShortestPath" style="stroke:#454645;stroke-width:1.0;"/><polygon fill="#454645" points="665,815.305,661,821.305,665,827.305,669,821.305,665,815.305" style="stroke:#454645;stroke-width:1.0;"/></g><!--reverse link Explorer to ShortestPath--><g id="link_Explorer_ShortestPath"><path codeLine="71" d="M1144.4618,205.7069 C1326.0918,240.8239 1600,309.585 1600,409 C1600,409 1600,409 1600,925.5 C1600,978.468 1361.66,1011.471 1125.65,1031.1669 " fill="none" id="Explorer-backto-ShortestPath" style="stroke:#454645;stroke-width:1.0;"/><polygon fill="#454645" points="1132.68,203.429,1137.8116,208.4952,1144.4618,205.7069,1139.3302,200.6407,1132.68,203.429" style="stroke:#454645;stroke-width:1.0;"/><polygon fill="#000000" points="1604.8861,593.5651,1608.0303,584.5893,1602.154,584.4554,1604.8861,593.5651" style="stroke:#000000;stroke-width:1.0;"/><text fill="#000000" font-family="sans-serif" font-size="13" lengthAdjust="spacing" textLength="30" x="1614" y="593.0669">uses</text><text fill="#000000" font-family="sans-serif" font-size="13" lengthAdjust="spacing" textLength="8" x="1140.4494" y="201.4407">1</text><text fill="#000000" font-family="sans-serif" font-size="13" lengthAdjust="spacing" textLength="8" x="1133.6362" y="1027.6424">1</text></g><!--SRC=[bLJBRjim4BphArYTd3W9aAjG-D2uBLmOjH5Vsai2MbhBh1bH86dNQP5_BnzBYPRa9j514ZdxcDqTyeFUmXEG0rjBMkaaoJbLYdm-rbn8aEHlGinpJRWeIv0PcRilRkOIOASoSkU-kAcOXeoip3kskWUrvnfD_I9s2F2g-Gze0JbJJ5GPcU8V0hKmZWvOuXy2QweroESv781dP5PfQ1bBUAAiObNvQL-KeBkmWVHZmIJaFl9AIsCRV5cvrLCcEziSDWExedRye8_O78poBZ0c3uYmFp1I0Rl8o46m8fXekeFGXz55Dm3DTvNupS6KXaqy6wW0pWuWlx2AydkeXTHHk9SagKqiMW99bukPIfqCl3Byh54NpNXdKvDepfJ-w4DC41uJMXJEPOHsGtoidPc63srv34QgpJBOk60_q11dEBdoN7vsjkCscSf28LPgKHbsM2sxc9OrxFJQ8WeHr7kdg2XHBFbktnhTnx7FYjwctIjOvRJ2FaZdFwMQPkJRQl5ziVvbjFkVYliyJexVUscu3hoFnDPe3PHUKhrjM8p9XbN57HVA895Sb1tagHnmo6-S_PKhpnp5OsOEdcwMpsvvXk9Nq5Rr4JjbIdtqZ4Pmr9BEgequLspaOhEzxl12x8bBcZitlKqlhzsJtjxSNARXVXqqIBsGU-u1mO5d93KZKsIIzWtR77tZv4IztXQZOvkIM5Pjxe3YVM7vdipUkGri3vKHIwRbzWy0]--></g></svg>