<?xml version="1.0" encoding="us-ascii" standalone="no"?><svg xmlns="http://www.w3.org/2000/svg" xmlns:xlink="http://www.w3.org/1999/xlink" contentStyleType="text/css" height="1440px" preserveAspectRatio="none" style="width:1739px;height:1440px;background:#FFFFFF;" version="1.1" viewBox="0 0 1739 1440" width="1739px" zoomAndPan="magnify"><defs/><g><rect fill="#E0E0E0" height="190.0234" style="stroke:#2A86E2;stroke-width:1.0;" width="10" x="213" y="61.6094"/><rect fill="#E0E0E0" height="220.7656" style="stroke:#2A86E2;stroke-width:1.0;" width="10" x="213" y="302.5703"/><rect fill="#E0E0E0" height="618.8984" style="stroke:#2A86E2;stroke-width:1.0;" width="10" x="213" y="550.1406"/><rect fill="#E0E0E0" height="187.6328" style="stroke:#2A86E2;stroke-width:1.0;" width="10" x="213" y="1202.8438"/><rect fill="#E0E0E0" height="54.8047" style="stroke:#2A86E2;stroke-width:1.0;" width="10" x="311" y="88.4141"/><rect fill="#E0E0E0" height="14" style="stroke:#2A86E2;stroke-width:1.0;" width="10" x="311" y="170.0234"/><rect fill="#E0E0E0" height="14" style="stroke:#2A86E2;stroke-width:1.0;" width="10" x="402" y="115.2188"/><rect fill="#E0E0E0" height="26.8047" style="stroke:#2A86E2;stroke-width:1.0;" width="10" x="475.5" y="210.8281"/><rect fill="#E0E0E0" height="26.8047" style="stroke:#2A86E2;stroke-width:1.0;" width="10" x="549.5" y="353.5078"/><rect fill="#E0E0E0" height="80.4141" style="stroke:#2A86E2;stroke-width:1.0;" width="10" x="549.5" y="409.1172"/><rect fill="#E0E0E0" height="121.2188" style="stroke:#2A86E2;stroke-width:1.0;" width="10" x="549.5" y="630.5547"/><rect fill="#E0E0E0" height="26.8047" style="stroke:#2A86E2;stroke-width:1.0;" width="10" x="907.5" y="435.9219"/><rect fill="#E0E0E0" height="26.8047" style="stroke:#2A86E2;stroke-width:1.0;" width="10" x="989" y="576.9453"/><rect fill="#E0E0E0" height="26.8047" style="stroke:#2A86E2;stroke-width:1.0;" width="10" x="989" y="657.3594"/><rect fill="#E0E0E0" height="26.8047" style="stroke:#2A86E2;stroke-width:1.0;" width="10" x="989" y="710.9688"/><rect fill="#E0E0E0" height="80.4141" style="stroke:#2A86E2;stroke-width:1.0;" width="10" x="1068" y="778.5781"/><rect fill="#E0E0E0" height="80.4141" style="stroke:#2A86E2;stroke-width:1.0;" width="10" x="1161.5" y="885.7969"/><rect fill="#E0E0E0" height="26.8047" style="stroke:#2A86E2;stroke-width:1.0;" width="10" x="1310.5" y="805.3828"/><rect fill="#E0E0E0" height="26.8047" style="stroke:#2A86E2;stroke-width:1.0;" width="10" x="1310.5" y="912.6016"/><rect fill="#E0E0E0" height="26.8047" style="stroke:#2A86E2;stroke-width:1.0;" width="10" x="1369.5" y="993.0156"/><rect fill="#E0E0E0" height="26.8047" style="stroke:#2A86E2;stroke-width:1.0;" width="10" x="1426.5" y="1046.625"/><rect fill="#E0E0E0" height="14" style="stroke:#2A86E2;stroke-width:1.0;" width="10" x="1492.5" y="1100.2344"/><rect fill="#E0E0E0" height="14" style="stroke:#2A86E2;stroke-width:1.0;" width="10" x="1492.5" y="1141.0391"/><rect fill="#E0E0E0" height="26.8047" style="stroke:#2A86E2;stroke-width:1.0;" width="10" x="1558" y="1229.6484"/><rect fill="#E0E0E0" height="26.8047" style="stroke:#2A86E2;stroke-width:1.0;" width="10" x="1613.5" y="1283.2578"/><rect fill="#E0E0E0" height="26.8047" style="stroke:#2A86E2;stroke-width:1.0;" width="10" x="1685" y="1336.8672"/><rect fill="none" height="910.4063" style="stroke:#000000;stroke-width:1.5;" width="1526" x="10" y="266.6328"/><rect fill="none" height="179.9609" style="stroke:#000000;stroke-width:1.5;" width="792" x="177.5" y="317.5703"/><line style="stroke:#2A86E2;stroke-width:0.5;stroke-dasharray:5.0,5.0;" x1="64" x2="64" y1="32.8047" y2="1408.4766"/><line style="stroke:#2A86E2;stroke-width:0.5;stroke-dasharray:5.0,5.0;" x1="217.5" x2="217.5" y1="32.8047" y2="1408.4766"/><line style="stroke:#2A86E2;stroke-width:0.5;stroke-dasharray:5.0,5.0;" x1="316" x2="316" y1="32.8047" y2="1408.4766"/><line style="stroke:#2A86E2;stroke-width:0.5;stroke-dasharray:5.0,5.0;" x1="407" x2="407" y1="32.8047" y2="1408.4766"/><line style="stroke:#2A86E2;stroke-width:0.5;stroke-dasharray:5.0,5.0;" x1="480" x2="480" y1="32.8047" y2="1408.4766"/><line style="stroke:#2A86E2;stroke-width:0.5;stroke-dasharray:5.0,5.0;" x1="554" x2="554" y1="32.8047" y2="1408.4766"/><line style="stroke:#2A86E2;stroke-width:0.5;stroke-dasharray:5.0,5.0;" x1="912.5" x2="912.5" y1="32.8047" y2="1408.4766"/><line style="stroke:#2A86E2;stroke-width:0.5;stroke-dasharray:5.0,5.0;" x1="993.5" x2="993.5" y1="32.8047" y2="1408.4766"/><line style="stroke:#2A86E2;stroke-width:0.5;stroke-dasharray:5.0,5.0;" x1="1072.5" x2="1072.5" y1="32.8047" y2="1408.4766"/><line style="stroke:#2A86E2;stroke-width:0.5;stroke-dasharray:5.0,5.0;" x1="1166.5" x2="1166.5" y1="32.8047" y2="1408.4766"/><line style="stroke:#2A86E2;stroke-width:0.5;stroke-dasharray:5.0,5.0;" x1="1315" x2="1315" y1="32.8047" y2="1408.4766"/><line style="stroke:#2A86E2;stroke-width:0.5;stroke-dasharray:5.0,5.0;" x1="1374" x2="1374" y1="32.8047" y2="1408.4766"/><line style="stroke:#2A86E2;stroke-width:0.5;stroke-dasharray:5.0,5.0;" x1="1431" x2="1431" y1="32.8047" y2="1408.4766"/><line style="stroke:#2A86E2;stroke-width:0.5;stroke-dasharray:5.0,5.0;" x1="1497" x2="1497" y1="32.8047" y2="1408.4766"/><line style="stroke:#2A86E2;stroke-width:0.5;stroke-dasharray:5.0,5.0;" x1="1563" x2="1563" y1="32.8047" y2="1408.4766"/><line style="stroke:#2A86E2;stroke-width:0.5;stroke-dasharray:5.0,5.0;" x1="1618" x2="1618" y1="32.8047" y2="1408.4766"/><line style="stroke:#2A86E2;stroke-width:0.5;stroke-dasharray:5.0,5.0;" x1="1690" x2="1690" y1="32.8047" y2="1408.4766"/><rect fill="#CCCCCC" height="26.8047" rx="2.5" ry="2.5" style="stroke:#AAAAAA;stroke-width:0.5;" width="88" x="20" y="5"/><text fill="#000000" font-family="Verdana" font-size="11" lengthAdjust="spacing" textLength="74" x="27" y="22.2104">IExplorerRaid</text><rect fill="#CCCCCC" height="26.8047" rx="2.5" ry="2.5" style="stroke:#AAAAAA;stroke-width:0.5;" width="88" x="20" y="1407.4766"/><text fill="#000000" font-family="Verdana" font-size="11" lengthAdjust="spacing" textLength="74" x="27" y="1424.687">IExplorerRaid</text><rect fill="#CCCCCC" height="26.8047" rx="2.5" ry="2.5" style="stroke:#AAAAAA;stroke-width:0.5;" width="61" x="187.5" y="5"/><text fill="#000000" font-family="Verdana" font-size="11" lengthAdjust="spacing" textLength="47" x="194.5" y="22.2104">Explorer</text><rect fill="#CCCCCC" height="26.8047" rx="2.5" ry="2.5" style="stroke:#AAAAAA;stroke-width:0.5;" width="61" x="187.5" y="1407.4766"/><text fill="#000000" font-family="Verdana" font-size="11" lengthAdjust="spacing" textLength="47" x="194.5" y="1424.687">Explorer</text><rect fill="#CCCCCC" height="26.8047" rx="2.5" ry="2.5" style="stroke:#AAAAAA;stroke-width:0.5;" width="56" x="288" y="5"/><text fill="#000000" font-family="Verdana" font-size="11" lengthAdjust="spacing" textLength="42" x="295" y="22.2104">Battery</text><rect fill="#CCCCCC" height="26.8047" rx="2.5" ry="2.5" style="stroke:#AAAAAA;stroke-width:0.5;" width="56" x="288" y="1407.4766"/><text fill="#000000" font-family="Verdana" font-size="11" lengthAdjust="spacing" textLength="42" x="295" y="1424.687">Battery</text><rect fill="#CCCCCC" height="26.8047" rx="2.5" ry="2.5" style="stroke:#AAAAAA;stroke-width:0.5;" width="62" x="376" y="5"/><text fill="#000000" font-family="Verdana" font-size="11" lengthAdjust="spacing" textLength="48" x="383" y="22.2104">Initialize</text><rect fill="#CCCCCC" height="26.8047" rx="2.5" ry="2.5" style="stroke:#AAAAAA;stroke-width:0.5;" width="62" x="376" y="1407.4766"/><text fill="#000000" font-family="Verdana" font-size="11" lengthAdjust="spacing" textLength="48" x="383" y="1424.687">Initialize</text><rect fill="#CCCCCC" height="26.8047" rx="2.5" ry="2.5" style="stroke:#AAAAAA;stroke-width:0.5;" width="65" x="448" y="5"/><text fill="#000000" font-family="Verdana" font-size="11" lengthAdjust="spacing" textLength="51" x="455" y="22.2104">Direction</text><rect fill="#CCCCCC" height="26.8047" rx="2.5" ry="2.5" style="stroke:#AAAAAA;stroke-width:0.5;" width="65" x="448" y="1407.4766"/><text fill="#000000" font-family="Verdana" font-size="11" lengthAdjust="spacing" textLength="51" x="455" y="1424.687">Direction</text><rect fill="#CCCCCC" height="26.8047" rx="2.5" ry="2.5" style="stroke:#AAAAAA;stroke-width:0.5;" width="63" x="523" y="5"/><text fill="#000000" font-family="Verdana" font-size="11" lengthAdjust="spacing" textLength="49" x="530" y="22.2104">Decision</text><rect fill="#CCCCCC" height="26.8047" rx="2.5" ry="2.5" style="stroke:#AAAAAA;stroke-width:0.5;" width="63" x="523" y="1407.4766"/><text fill="#000000" font-family="Verdana" font-size="11" lengthAdjust="spacing" textLength="49" x="530" y="1424.687">Decision</text><rect fill="#CCCCCC" height="26.8047" rx="2.5" ry="2.5" style="stroke:#AAAAAA;stroke-width:0.5;" width="94" x="865.5" y="5"/><text fill="#000000" font-family="Verdana" font-size="11" lengthAdjust="spacing" textLength="80" x="872.5" y="22.2104">DecisionState</text><rect fill="#CCCCCC" height="26.8047" rx="2.5" ry="2.5" style="stroke:#AAAAAA;stroke-width:0.5;" width="94" x="865.5" y="1407.4766"/><text fill="#000000" font-family="Verdana" font-size="11" lengthAdjust="spacing" textLength="80" x="872.5" y="1424.687">DecisionState</text><rect fill="#CCCCCC" height="26.8047" rx="2.5" ry="2.5" style="stroke:#AAAAAA;stroke-width:0.5;" width="49" x="969.5" y="5"/><text fill="#000000" font-family="Verdana" font-size="11" lengthAdjust="spacing" textLength="35" x="976.5" y="22.2104">Result</text><rect fill="#CCCCCC" height="26.8047" rx="2.5" ry="2.5" style="stroke:#AAAAAA;stroke-width:0.5;" width="49" x="969.5" y="1407.4766"/><text fill="#000000" font-family="Verdana" font-size="11" lengthAdjust="spacing" textLength="35" x="976.5" y="1424.687">Result</text><rect fill="#CCCCCC" height="26.8047" rx="2.5" ry="2.5" style="stroke:#AAAAAA;stroke-width:0.5;" width="89" x="1028.5" y="5"/><text fill="#000000" font-family="Verdana" font-size="11" lengthAdjust="spacing" textLength="75" x="1035.5" y="22.2104">CreekResults</text><rect fill="#CCCCCC" height="26.8047" rx="2.5" ry="2.5" style="stroke:#AAAAAA;stroke-width:0.5;" width="89" x="1028.5" y="1407.4766"/><text fill="#000000" font-family="Verdana" font-size="11" lengthAdjust="spacing" textLength="75" x="1035.5" y="1424.687">CreekResults</text><rect fill="#CCCCCC" height="26.8047" rx="2.5" ry="2.5" style="stroke:#AAAAAA;stroke-width:0.5;" width="78" x="1127.5" y="5"/><text fill="#000000" font-family="Verdana" font-size="11" lengthAdjust="spacing" textLength="64" x="1134.5" y="22.2104">SiteResults</text><rect fill="#CCCCCC" height="26.8047" rx="2.5" ry="2.5" style="stroke:#AAAAAA;stroke-width:0.5;" width="78" x="1127.5" y="1407.4766"/><text fill="#000000" font-family="Verdana" font-size="11" lengthAdjust="spacing" textLength="64" x="1134.5" y="1424.687">SiteResults</text><rect fill="#CCCCCC" height="26.8047" rx="2.5" ry="2.5" style="stroke:#AAAAAA;stroke-width:0.5;" width="59" x="1286" y="5"/><text fill="#000000" font-family="Verdana" font-size="11" lengthAdjust="spacing" textLength="45" x="1293" y="22.2104">GetPOIs</text><rect fill="#CCCCCC" height="26.8047" rx="2.5" ry="2.5" style="stroke:#AAAAAA;stroke-width:0.5;" width="59" x="1286" y="1407.4766"/><text fill="#000000" font-family="Verdana" font-size="11" lengthAdjust="spacing" textLength="45" x="1293" y="1424.687">GetPOIs</text><rect fill="#CCCCCC" height="26.8047" rx="2.5" ry="2.5" style="stroke:#AAAAAA;stroke-width:0.5;" width="39" x="1355" y="5"/><text fill="#000000" font-family="Verdana" font-size="11" lengthAdjust="spacing" textLength="25" x="1362" y="22.2104">Cost</text><rect fill="#CCCCCC" height="26.8047" rx="2.5" ry="2.5" style="stroke:#AAAAAA;stroke-width:0.5;" width="39" x="1355" y="1407.4766"/><text fill="#000000" font-family="Verdana" font-size="11" lengthAdjust="spacing" textLength="25" x="1362" y="1424.687">Cost</text><rect fill="#CCCCCC" height="26.8047" rx="2.5" ry="2.5" style="stroke:#AAAAAA;stroke-width:0.5;" width="55" x="1404" y="5"/><text fill="#000000" font-family="Verdana" font-size="11" lengthAdjust="spacing" textLength="41" x="1411" y="22.2104">Budget</text><rect fill="#CCCCCC" height="26.8047" rx="2.5" ry="2.5" style="stroke:#AAAAAA;stroke-width:0.5;" width="55" x="1404" y="1407.4766"/><text fill="#000000" font-family="Verdana" font-size="11" lengthAdjust="spacing" textLength="41" x="1411" y="1424.687">Budget</text><rect fill="#CCCCCC" height="26.8047" rx="2.5" ry="2.5" style="stroke:#AAAAAA;stroke-width:0.5;" width="57" x="1469" y="5"/><text fill="#000000" font-family="Verdana" font-size="11" lengthAdjust="spacing" textLength="43" x="1476" y="22.2104">Position</text><rect fill="#CCCCCC" height="26.8047" rx="2.5" ry="2.5" style="stroke:#AAAAAA;stroke-width:0.5;" width="57" x="1469" y="1407.4766"/><text fill="#000000" font-family="Verdana" font-size="11" lengthAdjust="spacing" textLength="43" x="1476" y="1424.687">Position</text><rect fill="#CCCCCC" height="26.8047" rx="2.5" ry="2.5" style="stroke:#AAAAAA;stroke-width:0.5;" width="54" x="1536" y="5"/><text fill="#000000" font-family="Verdana" font-size="11" lengthAdjust="spacing" textLength="40" x="1543" y="22.2104">Creeks</text><rect fill="#CCCCCC" height="26.8047" rx="2.5" ry="2.5" style="stroke:#AAAAAA;stroke-width:0.5;" width="54" x="1536" y="1407.4766"/><text fill="#000000" font-family="Verdana" font-size="11" lengthAdjust="spacing" textLength="40" x="1543" y="1424.687">Creeks</text><rect fill="#CCCCCC" height="26.8047" rx="2.5" ry="2.5" style="stroke:#AAAAAA;stroke-width:0.5;" width="37" x="1600" y="5"/><text fill="#000000" font-family="Verdana" font-size="11" lengthAdjust="spacing" textLength="23" x="1607" y="22.2104">Site</text><rect fill="#CCCCCC" height="26.8047" rx="2.5" ry="2.5" style="stroke:#AAAAAA;stroke-width:0.5;" width="37" x="1600" y="1407.4766"/><text fill="#000000" font-family="Verdana" font-size="11" lengthAdjust="spacing" textLength="23" x="1607" y="1424.687">Site</text><rect fill="#CCCCCC" height="26.8047" rx="2.5" ry="2.5" style="stroke:#AAAAAA;stroke-width:0.5;" width="86" x="1647" y="5"/><text fill="#000000" font-family="Verdana" font-size="11" lengthAdjust="spacing" textLength="72" x="1654" y="22.2104">ShortestPath</text><rect fill="#CCCCCC" height="26.8047" rx="2.5" ry="2.5" style="stroke:#AAAAAA;stroke-width:0.5;" width="86" x="1647" y="1407.4766"/><text fill="#000000" font-family="Verdana" font-size="11" lengthAdjust="spacing" textLength="72" x="1654" y="1424.687">ShortestPath</text><rect fill="#E0E0E0" height="190.0234" style="stroke:#2A86E2;stroke-width:1.0;" width="10" x="213" y="61.6094"/><rect fill="#E0E0E0" height="220.7656" style="stroke:#2A86E2;stroke-width:1.0;" width="10" x="213" y="302.5703"/><rect fill="#E0E0E0" height="618.8984" style="stroke:#2A86E2;stroke-width:1.0;" width="10" x="213" y="550.1406"/><rect fill="#E0E0E0" height="187.6328" style="stroke:#2A86E2;stroke-width:1.0;" width="10" x="213" y="1202.8438"/><rect fill="#E0E0E0" height="54.8047" style="stroke:#2A86E2;stroke-width:1.0;" width="10" x="311" y="88.4141"/><rect fill="#E0E0E0" height="14" style="stroke:#2A86E2;stroke-width:1.0;" width="10" x="311" y="170.0234"/><rect fill="#E0E0E0" height="14" style="stroke:#2A86E2;stroke-width:1.0;" width="10" x="402" y="115.2188"/><rect fill="#E0E0E0" height="26.8047" style="stroke:#2A86E2;stroke-width:1.0;" width="10" x="475.5" y="210.8281"/><rect fill="#E0E0E0" height="26.8047" style="stroke:#2A86E2;stroke-width:1.0;" width="10" x="549.5" y="353.5078"/><rect fill="#E0E0E0" height="80.4141" style="stroke:#2A86E2;stroke-width:1.0;" width="10" x="549.5" y="409.1172"/><rect fill="#E0E0E0" height="121.2188" style="stroke:#2A86E2;stroke-width:1.0;" width="10" x="549.5" y="630.5547"/><rect fill="#E0E0E0" height="26.8047" style="stroke:#2A86E2;stroke-width:1.0;" width="10" x="907.5" y="435.9219"/><rect fill="#E0E0E0" height="26.8047" style="stroke:#2A86E2;stroke-width:1.0;" width="10" x="989" y="576.9453"/><rect fill="#E0E0E0" height="26.8047" style="stroke:#2A86E2;stroke-width:1.0;" width="10" x="989" y="657.3594"/><rect fill="#E0E0E0" height="26.8047" style="stroke:#2A86E2;stroke-width:1.0;" width="10" x="989" y="710.9688"/><rect fill="#E0E0E0" height="80.4141" style="stroke:#2A86E2;stroke-width:1.0;" width="10" x="1068" y="778.5781"/><rect fill="#E0E0E0" height="80.4141" style="stroke:#2A86E2;stroke-width:1.0;" width="10" x="1161.5" y="885.7969"/><rect fill="#E0E0E0" height="26.8047" style="stroke:#2A86E2;stroke-width:1.0;" width="10" x="1310.5" y="805.3828"/><rect fill="#E0E0E0" height="26.8047" style="stroke:#2A86E2;stroke-width:1.0;" width="10" x="1310.5" y="912.6016"/><rect fill="#E0E0E0" height="26.8047" style="stroke:#2A86E2;stroke-width:1.0;" width="10" x="1369.5" y="993.0156"/><rect fill="#E0E0E0" height="26.8047" style="stroke:#2A86E2;stroke-width:1.0;" width="10" x="1426.5" y="1046.625"/><rect fill="#E0E0E0" height="14" style="stroke:#2A86E2;stroke-width:1.0;" width="10" x="1492.5" y="1100.2344"/><rect fill="#E0E0E0" height="14" style="stroke:#2A86E2;stroke-width:1.0;" width="10" x="1492.5" y="1141.0391"/><rect fill="#E0E0E0" height="26.8047" style="stroke:#2A86E2;stroke-width:1.0;" width="10" x="1558" y="1229.6484"/><rect fill="#E0E0E0" height="26.8047" style="stroke:#2A86E2;stroke-width:1.0;" width="10" x="1613.5" y="1283.2578"/><rect fill="#E0E0E0" height="26.8047" style="stroke:#2A86E2;stroke-width:1.0;" width="10" x="1685" y="1336.8672"/><polygon fill="#000000" points="201,57.6094,211,61.6094,201,65.6094,205,61.6094" style="stroke:#000000;stroke-width:1.0;"/><line style="stroke:#000000;stroke-width:1.0;" x1="64" x2="207" y1="61.6094" y2="61.6094"/><text fill="#333333" font-family="Verdana" font-size="11" lengthAdjust="spacing" textLength="62" x="71" y="57.0151">initialize(s)</text><polygon fill="#000000" points="299,84.4141,309,88.4141,299,92.4141,303,88.4141" style="stroke:#000000;stroke-width:1.0;"/><line style="stroke:#000000;stroke-width:1.0;" x1="223" x2="305" y1="88.4141" y2="88.4141"/><text fill="#333333" font-family="Verdana" font-size="11" lengthAdjust="spacing" textLength="50" x="230" y="83.8198">getInit(s)</text><polygon fill="#000000" points="390,111.2188,400,115.2188,390,119.2188,394,115.2188" style="stroke:#000000;stroke-width:1.0;"/><line style="stroke:#000000;stroke-width:1.0;" x1="321" x2="396" y1="115.2188" y2="115.2188"/><text fill="#333333" font-family="Verdana" font-size="11" lengthAdjust="spacing" textLength="62" x="328" y="110.6245">setInitial(s)</text><polygon fill="#000000" points="332,125.2188,322,129.2188,332,133.2188,328,129.2188" style="stroke:#000000;stroke-width:1.0;"/><line style="stroke:#000000;stroke-width:1.0;stroke-dasharray:2.0,2.0;" x1="326" x2="406" y1="129.2188" y2="129.2188"/><polygon fill="#000000" points="234,139.2188,224,143.2188,234,147.2188,230,143.2188" style="stroke:#000000;stroke-width:1.0;"/><line style="stroke:#000000;stroke-width:1.0;stroke-dasharray:2.0,2.0;" x1="228" x2="315" y1="143.2188" y2="143.2188"/><polygon fill="#000000" points="299,166.0234,309,170.0234,299,174.0234,303,170.0234" style="stroke:#000000;stroke-width:1.0;"/><line style="stroke:#000000;stroke-width:1.0;" x1="223" x2="305" y1="170.0234" y2="170.0234"/><text fill="#333333" font-family="Verdana" font-size="11" lengthAdjust="spacing" textLength="69" x="230" y="165.4292">getBattery()</text><polygon fill="#000000" points="234,180.0234,224,184.0234,234,188.0234,230,184.0234" style="stroke:#000000;stroke-width:1.0;"/><line style="stroke:#000000;stroke-width:1.0;stroke-dasharray:2.0,2.0;" x1="228" x2="315" y1="184.0234" y2="184.0234"/><polygon fill="#000000" points="463.5,206.8281,473.5,210.8281,463.5,214.8281,467.5,210.8281" style="stroke:#000000;stroke-width:1.0;"/><line style="stroke:#000000;stroke-width:1.0;" x1="223" x2="469.5" y1="210.8281" y2="210.8281"/><text fill="#333333" font-family="Verdana" font-size="11" lengthAdjust="spacing" textLength="176" x="230" y="206.2339">stringToDirection(init_direction)</text><polygon fill="#000000" points="234,233.6328,224,237.6328,234,241.6328,230,237.6328" style="stroke:#000000;stroke-width:1.0;"/><line style="stroke:#000000;stroke-width:1.0;stroke-dasharray:2.0,2.0;" x1="228" x2="479.5" y1="237.6328" y2="237.6328"/><text fill="#333333" font-family="Verdana" font-size="11" lengthAdjust="spacing" textLength="49" x="240" y="233.0386">direction</text><polygon fill="#000000" points="75,247.6328,65,251.6328,75,255.6328,71,251.6328" style="stroke:#000000;stroke-width:1.0;"/><line style="stroke:#000000;stroke-width:1.0;stroke-dasharray:2.0,2.0;" x1="69" x2="217" y1="251.6328" y2="251.6328"/><path d="M10,266.6328 L88,266.6328 L88,273.7656 L78,283.7656 L10,283.7656 L10,266.6328 " fill="#EEEEEE" style="stroke:#000000;stroke-width:1.5;"/><rect fill="none" height="910.4063" style="stroke:#000000;stroke-width:1.5;" width="1526" x="10" y="266.6328"/><text fill="#000000" font-family="sans-serif" font-size="13" font-weight="bold" lengthAdjust="spacing" textLength="33" x="25" y="279.6997">loop</text><text fill="#000000" font-family="sans-serif" font-size="11" font-weight="bold" lengthAdjust="spacing" textLength="118" x="103" y="278.8433">[decision &#8800; STOP]</text><polygon fill="#000000" points="201,298.5703,211,302.5703,201,306.5703,205,302.5703" style="stroke:#000000;stroke-width:1.0;"/><line style="stroke:#000000;stroke-width:1.0;" x1="64" x2="207" y1="302.5703" y2="302.5703"/><text fill="#333333" font-family="Verdana" font-size="11" lengthAdjust="spacing" textLength="82" x="71" y="297.9761">takeDecision()</text><path d="M177.5,317.5703 L243.5,317.5703 L243.5,324.7031 L233.5,334.7031 L177.5,334.7031 L177.5,317.5703 " fill="#EEEEEE" style="stroke:#000000;stroke-width:1.5;"/><rect fill="none" height="179.9609" style="stroke:#000000;stroke-width:1.5;" width="792" x="177.5" y="317.5703"/><text fill="#000000" font-family="sans-serif" font-size="13" font-weight="bold" lengthAdjust="spacing" textLength="21" x="192.5" y="330.6372">alt</text><text fill="#000000" font-family="sans-serif" font-size="11" font-weight="bold" lengthAdjust="spacing" textLength="213" x="258.5" y="329.7808">[remainingBudget &lt; minBudget]</text><polygon fill="#000000" points="537.5,349.5078,547.5,353.5078,537.5,357.5078,541.5,353.5078" style="stroke:#000000;stroke-width:1.0;"/><line style="stroke:#000000;stroke-width:1.0;" x1="223" x2="543.5" y1="353.5078" y2="353.5078"/><text fill="#333333" font-family="Verdana" font-size="11" lengthAdjust="spacing" textLength="81" x="230" y="348.9136">stopDecision()</text><polygon fill="#000000" points="234,376.3125,224,380.3125,234,384.3125,230,380.3125" style="stroke:#000000;stroke-width:1.0;"/><line style="stroke:#000000;stroke-width:1.0;stroke-dasharray:2.0,2.0;" x1="228" x2="553.5" y1="380.3125" y2="380.3125"/><text fill="#333333" font-family="Verdana" font-size="11" lengthAdjust="spacing" textLength="47" x="240" y="375.7183">decision</text><line style="stroke:#000000;stroke-width:1.0;stroke-dasharray:2.0,2.0;" x1="177.5" x2="969.5" y1="389.3125" y2="389.3125"/><polygon fill="#000000" points="537.5,405.1172,547.5,409.1172,537.5,413.1172,541.5,409.1172" style="stroke:#000000;stroke-width:1.0;"/><line style="stroke:#000000;stroke-width:1.0;" x1="223" x2="543.5" y1="409.1172" y2="409.1172"/><text fill="#333333" font-family="Verdana" font-size="11" lengthAdjust="spacing" textLength="303" x="230" y="404.5229">decisionControl(rightDir, leftDir, oppositeDir, initialDir)</text><polygon fill="#000000" points="895.5,431.9219,905.5,435.9219,895.5,439.9219,899.5,435.9219" style="stroke:#000000;stroke-width:1.0;"/><line style="stroke:#000000;stroke-width:1.0;" x1="559.5" x2="901.5" y1="435.9219" y2="435.9219"/><text fill="#333333" font-family="Verdana" font-size="11" lengthAdjust="spacing" textLength="329" x="566.5" y="431.3276">state.makeDecision(rightDir, leftDir, oppositeDir, initialDir)</text><polygon fill="#000000" points="570.5,458.7266,560.5,462.7266,570.5,466.7266,566.5,462.7266" style="stroke:#000000;stroke-width:1.0;"/><line style="stroke:#000000;stroke-width:1.0;stroke-dasharray:2.0,2.0;" x1="564.5" x2="911.5" y1="462.7266" y2="462.7266"/><text fill="#333333" font-family="Verdana" font-size="11" lengthAdjust="spacing" textLength="47" x="576.5" y="458.1323">decision</text><polygon fill="#000000" points="234,485.5313,224,489.5313,234,493.5313,230,489.5313" style="stroke:#000000;stroke-width:1.0;"/><line style="stroke:#000000;stroke-width:1.0;stroke-dasharray:2.0,2.0;" x1="228" x2="553.5" y1="489.5313" y2="489.5313"/><text fill="#333333" font-family="Verdana" font-size="11" lengthAdjust="spacing" textLength="47" x="240" y="484.937">decision</text><polygon fill="#000000" points="75,519.3359,65,523.3359,75,527.3359,71,523.3359" style="stroke:#000000;stroke-width:1.0;"/><line style="stroke:#000000;stroke-width:1.0;stroke-dasharray:2.0,2.0;" x1="69" x2="217" y1="523.3359" y2="523.3359"/><text fill="#333333" font-family="Verdana" font-size="11" lengthAdjust="spacing" textLength="47" x="81" y="518.7417">decision</text><polygon fill="#000000" points="201,546.1406,211,550.1406,201,554.1406,205,550.1406" style="stroke:#000000;stroke-width:1.0;"/><line style="stroke:#000000;stroke-width:1.0;" x1="64" x2="207" y1="550.1406" y2="550.1406"/><text fill="#333333" font-family="Verdana" font-size="11" lengthAdjust="spacing" textLength="130" x="71" y="545.5464">acknowledgeResults(s)</text><polygon fill="#000000" points="977,572.9453,987,576.9453,977,580.9453,981,576.9453" style="stroke:#000000;stroke-width:1.0;"/><line style="stroke:#000000;stroke-width:1.0;" x1="223" x2="983" y1="576.9453" y2="576.9453"/><text fill="#333333" font-family="Verdana" font-size="11" lengthAdjust="spacing" textLength="74" x="230" y="572.3511">printResult(s)</text><polygon fill="#000000" points="234,599.75,224,603.75,234,607.75,230,603.75" style="stroke:#000000;stroke-width:1.0;"/><line style="stroke:#000000;stroke-width:1.0;stroke-dasharray:2.0,2.0;" x1="228" x2="993" y1="603.75" y2="603.75"/><text fill="#333333" font-family="Verdana" font-size="11" lengthAdjust="spacing" textLength="51" x="240" y="599.1558">extraInfo</text><polygon fill="#000000" points="537.5,626.5547,547.5,630.5547,537.5,634.5547,541.5,630.5547" style="stroke:#000000;stroke-width:1.0;"/><line style="stroke:#000000;stroke-width:1.0;" x1="223" x2="543.5" y1="630.5547" y2="630.5547"/><text fill="#333333" font-family="Verdana" font-size="11" lengthAdjust="spacing" textLength="148" x="230" y="625.9604">useEchoResults(extraInfo)</text><polygon fill="#000000" points="977,653.3594,987,657.3594,977,661.3594,981,657.3594" style="stroke:#000000;stroke-width:1.0;"/><line style="stroke:#000000;stroke-width:1.0;" x1="559.5" x2="983" y1="657.3594" y2="657.3594"/><text fill="#333333" font-family="Verdana" font-size="11" lengthAdjust="spacing" textLength="133" x="566.5" y="652.7651">echo_result(resultData)</text><polygon fill="#000000" points="570.5,680.1641,560.5,684.1641,570.5,688.1641,566.5,684.1641" style="stroke:#000000;stroke-width:1.0;"/><line style="stroke:#000000;stroke-width:1.0;stroke-dasharray:2.0,2.0;" x1="564.5" x2="993" y1="684.1641" y2="684.1641"/><text fill="#333333" font-family="Verdana" font-size="11" lengthAdjust="spacing" textLength="33" x="576.5" y="679.5698">range</text><polygon fill="#000000" points="977,706.9688,987,710.9688,977,714.9688,981,710.9688" style="stroke:#000000;stroke-width:1.0;"/><line style="stroke:#000000;stroke-width:1.0;" x1="559.5" x2="983" y1="710.9688" y2="710.9688"/><text fill="#333333" font-family="Verdana" font-size="11" lengthAdjust="spacing" textLength="143" x="566.5" y="706.3745">border_range(resultData)</text><polygon fill="#000000" points="570.5,733.7734,560.5,737.7734,570.5,741.7734,566.5,737.7734" style="stroke:#000000;stroke-width:1.0;"/><line style="stroke:#000000;stroke-width:1.0;stroke-dasharray:2.0,2.0;" x1="564.5" x2="993" y1="737.7734" y2="737.7734"/><text fill="#333333" font-family="Verdana" font-size="11" lengthAdjust="spacing" textLength="33" x="576.5" y="733.1792">range</text><polygon fill="#000000" points="234,747.7734,224,751.7734,234,755.7734,230,751.7734" style="stroke:#000000;stroke-width:1.0;"/><line style="stroke:#000000;stroke-width:1.0;stroke-dasharray:2.0,2.0;" x1="228" x2="553.5" y1="751.7734" y2="751.7734"/><polygon fill="#000000" points="1056,774.5781,1066,778.5781,1056,782.5781,1060,778.5781" style="stroke:#000000;stroke-width:1.0;"/><line style="stroke:#000000;stroke-width:1.0;" x1="223" x2="1062" y1="778.5781" y2="778.5781"/><text fill="#333333" font-family="Verdana" font-size="11" lengthAdjust="spacing" textLength="156" x="230" y="773.9839">useScanCreeks(resultData)</text><polygon fill="#000000" points="1298.5,801.3828,1308.5,805.3828,1298.5,809.3828,1302.5,805.3828" style="stroke:#000000;stroke-width:1.0;"/><line style="stroke:#000000;stroke-width:1.0;" x1="1078" x2="1304.5" y1="805.3828" y2="805.3828"/><text fill="#333333" font-family="Verdana" font-size="11" lengthAdjust="spacing" textLength="137" x="1085" y="800.7886">scan_creeks(resultData)</text><polygon fill="#000000" points="1089,828.1875,1079,832.1875,1089,836.1875,1085,832.1875" style="stroke:#000000;stroke-width:1.0;"/><line style="stroke:#000000;stroke-width:1.0;stroke-dasharray:2.0,2.0;" x1="1083" x2="1314.5" y1="832.1875" y2="832.1875"/><text fill="#333333" font-family="Verdana" font-size="11" lengthAdjust="spacing" textLength="44" x="1095" y="827.5933">creekID</text><polygon fill="#000000" points="234,854.9922,224,858.9922,234,862.9922,230,858.9922" style="stroke:#000000;stroke-width:1.0;"/><line style="stroke:#000000;stroke-width:1.0;stroke-dasharray:2.0,2.0;" x1="228" x2="1072" y1="858.9922" y2="858.9922"/><text fill="#333333" font-family="Verdana" font-size="11" lengthAdjust="spacing" textLength="44" x="240" y="854.3979">creekID</text><polygon fill="#000000" points="1149.5,881.7969,1159.5,885.7969,1149.5,889.7969,1153.5,885.7969" style="stroke:#000000;stroke-width:1.0;"/><line style="stroke:#000000;stroke-width:1.0;" x1="223" x2="1155.5" y1="885.7969" y2="885.7969"/><text fill="#333333" font-family="Verdana" font-size="11" lengthAdjust="spacing" textLength="139" x="230" y="881.2026">useScanSite(resultData)</text><polygon fill="#000000" points="1298.5,908.6016,1308.5,912.6016,1298.5,916.6016,1302.5,912.6016" style="stroke:#000000;stroke-width:1.0;"/><line style="stroke:#000000;stroke-width:1.0;" x1="1171.5" x2="1304.5" y1="912.6016" y2="912.6016"/><text fill="#333333" font-family="Verdana" font-size="11" lengthAdjust="spacing" textLength="120" x="1178.5" y="908.0073">scan_site(resultData)</text><polygon fill="#000000" points="1182.5,935.4063,1172.5,939.4063,1182.5,943.4063,1178.5,939.4063" style="stroke:#000000;stroke-width:1.0;"/><line style="stroke:#000000;stroke-width:1.0;stroke-dasharray:2.0,2.0;" x1="1176.5" x2="1314.5" y1="939.4063" y2="939.4063"/><text fill="#333333" font-family="Verdana" font-size="11" lengthAdjust="spacing" textLength="33" x="1188.5" y="934.812">siteID</text><polygon fill="#000000" points="234,962.2109,224,966.2109,234,970.2109,230,966.2109" style="stroke:#000000;stroke-width:1.0;"/><line style="stroke:#000000;stroke-width:1.0;stroke-dasharray:2.0,2.0;" x1="228" x2="1165.5" y1="966.2109" y2="966.2109"/><text fill="#333333" font-family="Verdana" font-size="11" lengthAdjust="spacing" textLength="33" x="240" y="961.6167">siteID</text><polygon fill="#000000" points="1357.5,989.0156,1367.5,993.0156,1357.5,997.0156,1361.5,993.0156" style="stroke:#000000;stroke-width:1.0;"/><line style="stroke:#000000;stroke-width:1.0;" x1="223" x2="1363.5" y1="993.0156" y2="993.0156"/><text fill="#333333" font-family="Verdana" font-size="11" lengthAdjust="spacing" textLength="58" x="230" y="988.4214">getCost(s)</text><polygon fill="#000000" points="234,1015.8203,224,1019.8203,234,1023.8203,230,1019.8203" style="stroke:#000000;stroke-width:1.0;"/><line style="stroke:#000000;stroke-width:1.0;stroke-dasharray:2.0,2.0;" x1="228" x2="1373.5" y1="1019.8203" y2="1019.8203"/><text fill="#333333" font-family="Verdana" font-size="11" lengthAdjust="spacing" textLength="23" x="240" y="1015.2261">cost</text><polygon fill="#000000" points="1414.5,1042.625,1424.5,1046.625,1414.5,1050.625,1418.5,1046.625" style="stroke:#000000;stroke-width:1.0;"/><line style="stroke:#000000;stroke-width:1.0;" x1="223" x2="1420.5" y1="1046.625" y2="1046.625"/><text fill="#333333" font-family="Verdana" font-size="11" lengthAdjust="spacing" textLength="218" x="230" y="1042.0308">getDifference(batteryLevel, totalCost)</text><polygon fill="#000000" points="234,1069.4297,224,1073.4297,234,1077.4297,230,1073.4297" style="stroke:#000000;stroke-width:1.0;"/><line style="stroke:#000000;stroke-width:1.0;stroke-dasharray:2.0,2.0;" x1="228" x2="1430.5" y1="1073.4297" y2="1073.4297"/><text fill="#333333" font-family="Verdana" font-size="11" lengthAdjust="spacing" textLength="98" x="240" y="1068.8354">remainingBudget</text><polygon fill="#000000" points="1480.5,1096.2344,1490.5,1100.2344,1480.5,1104.2344,1484.5,1100.2344" style="stroke:#000000;stroke-width:1.0;"/><line style="stroke:#000000;stroke-width:1.0;" x1="223" x2="1486.5" y1="1100.2344" y2="1100.2344"/><text fill="#333333" font-family="Verdana" font-size="11" lengthAdjust="spacing" textLength="144" x="230" y="1095.6401">updateDecision(decision)</text><polygon fill="#000000" points="234,1110.2344,224,1114.2344,234,1118.2344,230,1114.2344" style="stroke:#000000;stroke-width:1.0;"/><line style="stroke:#000000;stroke-width:1.0;stroke-dasharray:2.0,2.0;" x1="228" x2="1496.5" y1="1114.2344" y2="1114.2344"/><polygon fill="#000000" points="1480.5,1137.0391,1490.5,1141.0391,1480.5,1145.0391,1484.5,1141.0391" style="stroke:#000000;stroke-width:1.0;"/><line style="stroke:#000000;stroke-width:1.0;" x1="223" x2="1486.5" y1="1141.0391" y2="1141.0391"/><text fill="#333333" font-family="Verdana" font-size="11" lengthAdjust="spacing" textLength="100" x="230" y="1136.4448">change_position()</text><polygon fill="#000000" points="234,1151.0391,224,1155.0391,234,1159.0391,230,1155.0391" style="stroke:#000000;stroke-width:1.0;"/><line style="stroke:#000000;stroke-width:1.0;stroke-dasharray:2.0,2.0;" x1="228" x2="1496.5" y1="1155.0391" y2="1155.0391"/><polygon fill="#000000" points="75,1165.0391,65,1169.0391,75,1173.0391,71,1169.0391" style="stroke:#000000;stroke-width:1.0;"/><line style="stroke:#000000;stroke-width:1.0;stroke-dasharray:2.0,2.0;" x1="69" x2="217" y1="1169.0391" y2="1169.0391"/><polygon fill="#000000" points="201,1198.8438,211,1202.8438,201,1206.8438,205,1202.8438" style="stroke:#000000;stroke-width:1.0;"/><line style="stroke:#000000;stroke-width:1.0;" x1="64" x2="207" y1="1202.8438" y2="1202.8438"/><text fill="#333333" font-family="Verdana" font-size="11" lengthAdjust="spacing" textLength="111" x="71" y="1198.2495">deliverFinalReport()</text><polygon fill="#000000" points="1546,1225.6484,1556,1229.6484,1546,1233.6484,1550,1229.6484" style="stroke:#000000;stroke-width:1.0;"/><line style="stroke:#000000;stroke-width:1.0;" x1="223" x2="1552" y1="1229.6484" y2="1229.6484"/><text fill="#333333" font-family="Verdana" font-size="11" lengthAdjust="spacing" textLength="67" x="230" y="1225.0542">getCreeks()</text><polygon fill="#000000" points="234,1252.4531,224,1256.4531,234,1260.4531,230,1256.4531" style="stroke:#000000;stroke-width:1.0;"/><line style="stroke:#000000;stroke-width:1.0;stroke-dasharray:2.0,2.0;" x1="228" x2="1562" y1="1256.4531" y2="1256.4531"/><text fill="#333333" font-family="Verdana" font-size="11" lengthAdjust="spacing" textLength="50" x="240" y="1251.8589">creekIDs</text><polygon fill="#000000" points="1601.5,1279.2578,1611.5,1283.2578,1601.5,1287.2578,1605.5,1283.2578" style="stroke:#000000;stroke-width:1.0;"/><line style="stroke:#000000;stroke-width:1.0;" x1="223" x2="1607.5" y1="1283.2578" y2="1283.2578"/><text fill="#333333" font-family="Verdana" font-size="11" lengthAdjust="spacing" textLength="50" x="230" y="1278.6636">getSite()</text><polygon fill="#000000" points="234,1306.0625,224,1310.0625,234,1314.0625,230,1310.0625" style="stroke:#000000;stroke-width:1.0;"/><line style="stroke:#000000;stroke-width:1.0;stroke-dasharray:2.0,2.0;" x1="228" x2="1617.5" y1="1310.0625" y2="1310.0625"/><text fill="#333333" font-family="Verdana" font-size="11" lengthAdjust="spacing" textLength="33" x="240" y="1305.4683">siteID</text><polygon fill="#000000" points="1673,1332.8672,1683,1336.8672,1673,1340.8672,1677,1336.8672" style="stroke:#000000;stroke-width:1.0;"/><line style="stroke:#000000;stroke-width:1.0;" x1="223" x2="1679" y1="1336.8672" y2="1336.8672"/><text fill="#333333" font-family="Verdana" font-size="11" lengthAdjust="spacing" textLength="365" x="230" y="1332.2729">findClosestCreek(creeksList, creekX, creekY, siteposx, siteposy)</text><polygon fill="#000000" points="234,1359.6719,224,1363.6719,234,1367.6719,230,1363.6719" style="stroke:#000000;stroke-width:1.0;"/><line style="stroke:#000000;stroke-width:1.0;stroke-dasharray:2.0,2.0;" x1="228" x2="1689" y1="1363.6719" y2="1363.6719"/><text fill="#333333" font-family="Verdana" font-size="11" lengthAdjust="spacing" textLength="78" x="240" y="1359.0776">closest_creek</text><polygon fill="#000000" points="75,1386.4766,65,1390.4766,75,1394.4766,71,1390.4766" style="stroke:#000000;stroke-width:1.0;"/><line style="stroke:#000000;stroke-width:1.0;stroke-dasharray:2.0,2.0;" x1="69" x2="217" y1="1390.4766" y2="1390.4766"/><text fill="#333333" font-family="Verdana" font-size="11" lengthAdjust="spacing" textLength="78" x="81" y="1385.8823">closest_creek</text><!--SRC=[jLTBRjim4Dth5EnE1PmUm2YoY9qM1WB4YBDeLmOZZMqYj2YGT9hq1hr5pzQJb1-9cj77QODsfU6Gy-7Z_FJE7k08J4DPQZ3cGehzmJx84sHPpRKLXQXvPTdg-hcMIeE-uw8aE-q6OLvnQq6_K1MLi89ByHq8Uoaq55QeYdAX46QAkR7SKYLtO4xI4jP20pn6lY4R6s5XZFyPxFfsHNaBPQZMgrEv1yfQAoC6_WVhGxkKSL3QWh5hRWzPHX1c5vS9s3aJ2RdSlC-uG-l90T0XdoNIopNOpvbpr6FkPLWIQbycOotfPRgtcJCJnTmoI7QYw04Tkrkn2spLRPKmBfCCujjb-7ZdtTID6ZeVlzDRBQGWTDUtMbJxUvLOkOT_MxPBRBYBtQoZYMsMv8WNIB1pmxy33e9vXYIwnvPArKvNJ0NswyTFjhc_NJiFpaIGvO_GPW-13iKGbzQLWIDtrwtsCSxPHtOKLHFpxc49P8qwZvYgiNA4Jvl5ZjdIh8TFUuI43H84QM3QTYk-K9NLIkRQbo-7xen9s4L2rRNFK0YB9fKSFUaeylIIbXn_LVVvSCHe_ft5eSbOpB3Tm0am3U_fputWb9Iy6UMg92anY4MaOZGgpqKVBnuhzKs22wEcyDAQXBIGPuw7vwns6MdZebUIchhlM97gNHkUhUQhQgVelJkfyQ0w6RWk3ghrDMdviv1flGQdOgkZr_6pv9RJ8EWymHVeFD6ysaFlpP7CcDa7fKlGso3vd-oE1zbaR16KSLiEI6yANiLksVCsgIATt3k56LvdqxbTUZfTss9CMQUjRVEUsT3X7jIne6Irx460PAaF9EewMIJQlmJ614qa2HBFcm84Jp3UGxGUmc66Ybu7WtZaDPo3WfWdI2H99DXpdiI6cxP2a_T4BzF39EPnTzy-tdwBWjqS9aD4w691_LBiTg2XAY1_YEF03Jo1d36hB9TUc9Zk-b_J5QdvNi-adeptpdPaTAzTb-vOQYPjaINsqu3fc2rzBlNm-N6hnS7dzxPk6Fc_CdTkbXbl6w7ld6aT9KZn1FgJgBYyWzeDpFdh4t0i9p6IOZ70tQOPpRE664zUamsIr_Ii-40EDaAgOWjXqi_2Po8XUldGrun-3EPi9wfo8PLnZE177WlSZJ1s5jtzqdo_pe81zwpFYNeXZf4_3hBimn0Dnc9A_IKwpaqCLCV8y_y6]--></g></svg>